<?xml version="1.0" encoding="UTF-8"?>
<svg width="20px" height="20px" viewBox="0 0 20 20" version="1.1" xmlns="http://www.w3.org/2000/svg" xmlns:xlink="http://www.w3.org/1999/xlink">
    <title>Icon/Board</title>
    <defs>
        <path d="M3.2,14.9941413 C3.2,15.4413433 3.5566691,15.8 3.99406028,15.8 L16.0059397,15.8 C16.4419196,15.8 16.8,15.4400182 16.8,14.9941413 L16.8,5.00585866 C16.8,4.5586567 16.4433309,4.2 16.0059397,4.2 L3.99406028,4.2 C3.55808041,4.2 3.2,4.55998179 3.2,5.00585866 L3.2,14.9941413 Z M16.0059397,3 C17.1072288,3 18,3.89706013 18,5.00585866 L18,14.9941413 C18,16.1019465 17.1054862,17 16.0059397,17 L3.99406028,17 C2.8927712,17 2,16.1029399 2,14.9941413 L2,5.00585866 C2,3.89805351 2.89451376,3 3.99406028,3 L16.0059397,3 Z M6.8,4.2 L3.99791312,4.2 C3.56042005,4.2 3.2,4.56138307 3.2,5.00585866 L3.2,14.9941413 C3.2,15.4408274 3.55787226,15.8 3.99791312,15.8 L6.8,15.8 L6.8,4.2 Z M3.99791312,3 L8,3 L8,17 L3.99791312,17 C2.89449617,17 2,16.1029399 2,14.9941413 L2,5.00585866 C2,3.89805351 2.89826062,3 3.99791312,3 Z M16.8,5.00585866 C16.8,4.56138307 16.43958,4.2 16.0020869,4.2 L13.2,4.2 L13.2,15.8 L16.0020869,15.8 C16.4421277,15.8 16.8,15.4408274 16.8,14.9941413 L16.8,5.00585866 Z M18,14.9941413 C18,16.1029399 17.1055038,17 16.0020869,17 L12,17 L12,3 L16.0020869,3 C17.1017394,3 18,3.89805351 18,5.00585866 L18,14.9941413 Z" id="path-1"></path>
    </defs>
    <g id="Icon/Board" stroke="none" stroke-width="1" fill="none" fill-rule="evenodd">
        <rect id="icon-view-board" x="0" y="0" width="20" height="20"></rect>
        <mask id="mask-2" fill="white">
            <use xlink:href="#path-1"></use>
        </mask>
        <use id="icon-view-board" fill="#A6A6A6" fill-rule="nonzero" xlink:href="#path-1"></use>
        <rect id="Color" fill="#333333" mask="url(#mask-2)" x="0" y="0" width="20" height="20"></rect>
    </g>
</svg>