<?xml version="1.0" encoding="UTF-8"?>
<svg width="20px" height="20px" viewBox="0 0 20 20" version="1.1" xmlns="http://www.w3.org/2000/svg" xmlns:xlink="http://www.w3.org/1999/xlink">
    <title>Icon/Calendar</title>
    <defs>
        <polygon id="path-1" points="0 20 20 20 20 0 0 0"></polygon>
        <path d="M15.294,16.8 L4.706,16.8 C4.272,16.8 3.906,16.434 3.906,16 L3.906,8.282 L16.094,8.282 L16.094,16 C16.094,16.434 15.728,16.8 15.294,16.8 L15.294,16.8 Z M4.706,4.612 L6.146,4.612 L6.146,5.038 C6.146,5.369 6.415,5.638 6.746,5.638 C7.078,5.638 7.346,5.369 7.346,5.038 L7.346,4.612 L12.654,4.612 L12.654,5.038 C12.654,5.369 12.922,5.638 13.254,5.638 C13.586,5.638 13.854,5.369 13.854,5.038 L13.854,4.612 L15.294,4.612 C15.728,4.612 16.094,4.978 16.094,5.412 L16.094,7.082 L3.906,7.082 L3.906,5.412 C3.906,4.978 4.272,4.612 4.706,4.612 L4.706,4.612 Z M13.254,2 C13.586,2 13.854,2.269 13.854,2.6 L13.854,2.6 L13.854,3.412 L15.294,3.412 C16.394,3.412 17.294,4.312 17.294,5.412 L17.294,5.412 L17.294,16 C17.294,17.1 16.394,18 15.294,18 L15.294,18 L4.706,18 C3.606,18 2.706,17.1 2.706,16 L2.706,16 L2.706,5.412 C2.706,4.312 3.606,3.412 4.706,3.412 L4.706,3.412 L6.146,3.412 L6.146,2.6 C6.146,2.269 6.415,2 6.746,2 C7.078,2 7.346,2.269 7.346,2.6 L7.346,2.6 L7.346,3.412 L12.654,3.412 L12.654,2.6 C12.654,2.269 12.922,2 13.254,2 Z M6.5444,9.9612 L6.1074,9.9612 C5.5544,9.9612 5.1074,10.4092 5.1074,10.9612 L5.1074,11.3982 C5.1074,11.9512 5.5544,12.3982 6.1074,12.3982 L6.5444,12.3982 C7.0964,12.3982 7.5444,11.9512 7.5444,11.3982 L7.5444,10.9612 C7.5444,10.4092 7.0964,9.9612 6.5444,9.9612 Z" id="path-3"></path>
    </defs>
    <g id="Icon/Calendar" stroke="none" stroke-width="1" fill="none" fill-rule="evenodd">
        <g id="icon-start-date">
            <mask id="mask-2" fill="white">
                <use xlink:href="#path-1"></use>
            </mask>
            <g></g>
            <mask id="mask-4" fill="white">
                <use xlink:href="#path-3"></use>
            </mask>
            <use fill="#A6A6A6" xlink:href="#path-3"></use>
            <rect id="Color" fill="#333333" mask="url(#mask-4)" x="0" y="0" width="20" height="20"></rect>
        </g>
    </g>
</svg>