<?xml version="1.0" encoding="UTF-8"?>
<svg width="20px" height="20px" viewBox="0 0 20 20" version="1.1" xmlns="http://www.w3.org/2000/svg" xmlns:xlink="http://www.w3.org/1999/xlink">
    <title>Icon/Chat</title>
    <defs>
        <polygon id="path-1" points="0 20 20 20 20 0 0 0"></polygon>
        <path d="M16,2.9924 L4,2.9924 C2.9,2.9924 2,3.8924 2,4.9924 L2,9.4074 L2,12.9924 L2,16.0074 C2,16.3864 2.214,16.7334 2.553,16.9024 C2.695,16.9724 2.848,17.0074 3,17.0074 C3.213,17.0074 3.424,16.9394 3.601,16.8074 L6.017,14.9924 L16,14.9924 C17.1,14.9924 18,14.0924 18,12.9924 L18,4.9924 C18,3.8924 17.1,2.9924 16,2.9924 L16,2.9924 Z M16,4.1924 C16.434,4.1924 16.8,4.5584 16.8,4.9924 L16.8,12.9924 C16.8,13.4264 16.434,13.7924 16,13.7924 L6.017,13.7924 C5.757,13.7924 5.504,13.8764 5.296,14.0324 L3.2,15.6074 L3.2,4.9924 C3.2,4.5584 3.566,4.1924 4,4.1924 L16,4.1924 Z M9.9308,10.0505 L6.0378,10.0505 C5.7058,10.0505 5.4378,10.3185 5.4378,10.6505 C5.4378,10.9815 5.7058,11.2505 6.0378,11.2505 L6.0378,11.2505 L9.9308,11.2505 C10.2628,11.2505 10.5308,10.9815 10.5308,10.6505 C10.5308,10.3185 10.2628,10.0505 9.9308,10.0505 L9.9308,10.0505 Z M13.8234,6.6105 L6.0374,6.6105 C5.7064,6.6105 5.4374,6.8785 5.4374,7.2105 C5.4374,7.5415 5.7064,7.8105 6.0374,7.8105 L6.0374,7.8105 L13.8234,7.8105 C14.1554,7.8105 14.4234,7.5415 14.4234,7.2105 C14.4234,6.8785 14.1554,6.6105 13.8234,6.6105 L13.8234,6.6105 Z" id="path-3"></path>
    </defs>
    <g id="Icon/Chat" stroke="none" stroke-width="1" fill="none" fill-rule="evenodd">
        <mask id="mask-2" fill="white">
            <use xlink:href="#path-1"></use>
        </mask>
        <g id="icon-chat-private-stroke"></g>
        <mask id="mask-4" fill="white">
            <use xlink:href="#path-3"></use>
        </mask>
        <use id="icon-chat-private-stroke" fill="#A6A6A6" xlink:href="#path-3"></use>
        <rect id="Color" fill="#333333" mask="url(#mask-4)" x="0" y="0" width="20" height="20"></rect>
    </g>
</svg>