<?xml version="1.0" encoding="UTF-8"?>
<svg width="20px" height="20px" viewBox="0 0 20 20" version="1.1" xmlns="http://www.w3.org/2000/svg" xmlns:xlink="http://www.w3.org/1999/xlink">
    <title>Icon/Check</title>
    <defs>
        <polygon id="path-1" points="0 20 20 20 20 0 0 0"></polygon>
        <path d="M10.0002,2.0003 C14.4182,2.0003 18.0002,5.5813 18.0002,10.0003 C18.0002,14.4183 14.4182,18.0003 10.0002,18.0003 C5.5822,18.0003 2.0002,14.4183 2.0002,10.0003 C2.0002,5.5813 5.5822,2.0003 10.0002,2.0003 Z M13.6932,7.0003 C13.5392,7.0003 13.3862,7.0583 13.2682,7.1763 L13.2682,7.1763 L8.8932,11.5513 L6.7312,9.3893 C6.6142,9.2723 6.4602,9.2143 6.3072,9.2143 C6.1532,9.2143 5.9992,9.2723 5.8822,9.3893 C5.6482,9.6243 5.6482,10.0043 5.8822,10.2383 L5.8822,10.2383 L8.4692,12.8243 C8.5862,12.9413 8.7402,13.0003 8.8932,13.0003 C9.0462,13.0003 9.2002,12.9413 9.3172,12.8243 L9.3172,12.8243 L14.1172,8.0243 C14.3512,7.7903 14.3512,7.4103 14.1172,7.1763 C14.0002,7.0583 13.8462,7.0003 13.6932,7.0003 Z" id="path-3"></path>
    </defs>
    <g id="Icon/Check" stroke="none" stroke-width="1" fill="none" fill-rule="evenodd">
        <mask id="mask-2" fill="white">
            <use xlink:href="#path-1"></use>
        </mask>
        <g id="icon-state-check"></g>
        <mask id="mask-4" fill="white">
            <use xlink:href="#path-3"></use>
        </mask>
        <use id="icon-state-check" fill="#A6A6A6" xlink:href="#path-3"></use>
        <rect id="Color" fill="#333333" mask="url(#mask-4)" x="0" y="0" width="20" height="20"></rect>
    </g>
</svg>