<?xml version="1.0" encoding="UTF-8"?>
<svg width="20px" height="20px" viewBox="0 0 20 20" version="1.1" xmlns="http://www.w3.org/2000/svg" xmlns:xlink="http://www.w3.org/1999/xlink">
    <title>Icon/Clock</title>
    <defs>
        <polygon id="path-1" points="0 20 20 20 20 0 0 0"></polygon>
        <path d="M10,2 C5.582,2 2,5.582 2,10 C2,14.418 5.582,18 10,18 C14.418,18 18,14.418 18,10 C18,5.582 14.418,2 10,2 L10,2 Z M10,3.2 C13.75,3.2 16.8,6.25 16.8,10 C16.8,13.75 13.75,16.8 10,16.8 C6.25,16.8 3.2,13.75 3.2,10 C3.2,6.25 6.25,3.2 10,3.2 L10,3.2 Z M13.296,12.9326 C13.194,12.9326 13.091,12.9066 12.997,12.8516 L9.341,10.7416 C9.155,10.6346 9.041,10.4366 9.041,10.2226 L9.041,6.6246 C9.041,6.2936 9.309,6.0246 9.641,6.0246 C9.972,6.0246 10.241,6.2936 10.241,6.6246 L10.241,9.8756 L13.596,11.8126 C13.883,11.9786 13.982,12.3456 13.816,12.6326 C13.705,12.8256 13.504,12.9326 13.296,12.9326" id="path-3"></path>
    </defs>
    <g id="Icon/Clock" stroke="none" stroke-width="1" fill="none" fill-rule="evenodd">
        <mask id="mask-2" fill="white">
            <use xlink:href="#path-1"></use>
        </mask>
        <g id="icon-clock"></g>
        <mask id="mask-4" fill="white">
            <use xlink:href="#path-3"></use>
        </mask>
        <use id="icon-clock" fill="#A6A6A6" xlink:href="#path-3"></use>
        <rect id="Color" fill="#333333" mask="url(#mask-4)" x="0" y="0" width="20" height="20"></rect>
    </g>
</svg>