<?xml version="1.0" encoding="UTF-8"?>
<svg width="20px" height="20px" viewBox="0 0 20 20" version="1.1" xmlns="http://www.w3.org/2000/svg" xmlns:xlink="http://www.w3.org/1999/xlink">
    <title>Icon/Copy</title>
    <defs>
        <polygon id="path-1" points="0 20 20 20 20 0 0 0"></polygon>
        <path d="M6.07840005,4.5259 L4.79700005,4.5259 C4.05600005,4.5259 3.45000005,5.1329 3.45000005,5.8739 L3.45000005,16.6529 C3.45000005,17.3939 4.05600005,17.9999 4.79700005,17.9999 L12.882,17.9999 C13.623,17.9999 14.229,17.3939 14.229,16.6529 L14.229,15.474 L15.5104,15.474 C16.2514,15.474 16.8574,14.867 16.8574,14.126 L16.8574,7.422 C16.8574,7.065 16.7154,6.722 16.4624,6.469 L12.3884,2.395 C12.1354,2.142 11.7924,2 11.4354,2 L7.42540005,2 C6.68440005,2 6.07840005,2.606 6.07840005,3.347 L6.07840005,4.5259 M13.029,15.474 L13.029,16.6529 C13.029,16.7309 12.96,16.7999 12.882,16.7999 L4.79700005,16.7999 C4.71900005,16.7999 4.65000005,16.7309 4.65000005,16.6529 L4.65000005,5.8739 C4.65000005,5.7949 4.71900005,5.7259 4.79700005,5.7259 L6.07840005,5.7259 L6.07840005,14.126 C6.07840005,14.867 6.68440005,15.474 7.42540005,15.474 L13.029,15.474 L13.029,15.474 M15.6574,7.7263 L15.6574,14.126 C15.6574,14.205 15.5884,14.274 15.5104,14.274 L7.42540005,14.274 C7.34740005,14.274 7.27840005,14.205 7.27840005,14.126 L7.27840005,3.347 C7.27840005,3.269 7.34740005,3.2 7.42540005,3.2 L11.146,3.2 L11.146,6.3793 C11.146,7.1203 11.752,7.7263 12.493,7.7263 L15.6574,7.7263 L15.6574,7.7263 M12.345,4.0486 L14.8227,6.5263 L12.493,6.5263 C12.414,6.5263 12.345,6.4573 12.345,6.3793 L12.345,4.0486 L12.345,4.0486" id="path-3"></path>
    </defs>
    <g id="Icon/Copy" stroke="none" stroke-width="1" fill="none" fill-rule="evenodd">
        <mask id="mask-2" fill="white">
            <use xlink:href="#path-1"></use>
        </mask>
        <g id="icon-copy"></g>
        <mask id="mask-4" fill="white">
            <use xlink:href="#path-3"></use>
        </mask>
        <use id="Shape" fill="#A6A6A6" xlink:href="#path-3"></use>
        <rect id="Color" fill="#333333" mask="url(#mask-4)" x="0" y="0" width="20" height="20"></rect>
    </g>
</svg>