<?xml version="1.0" encoding="UTF-8"?>
<svg width="20px" height="20px" viewBox="0 0 20 20" version="1.1" xmlns="http://www.w3.org/2000/svg" xmlns:xlink="http://www.w3.org/1999/xlink">
    <title>Icon/Dashboard</title>
    <defs>
        <path d="M3.6000001,12.8700006 L3.6000001,16.4000004 L8.12999992,16.4000004 L8.12999992,12.8700006 L3.6000001,12.8700006 Z M3.20000011,11.6700006 L8.52999991,11.6700006 C8.97182772,11.6700006 9.32999992,12.0281728 9.32999992,12.4700006 L9.32999992,16.8000004 C9.32999992,17.2418282 8.97182772,17.6000004 8.52999991,17.6000004 L3.20000011,17.6000004 C2.7581723,17.6000004 2.4000001,17.2418282 2.4000001,16.8000004 L2.4000001,12.4700006 C2.4000001,12.0281728 2.7581723,11.6700006 3.20000011,11.6700006 Z M11.8700006,3.6000001 L11.8700006,7.12999992 L16.4000004,7.12999992 L16.4000004,3.6000001 L11.8700006,3.6000001 Z M11.4700006,2.4000001 L16.8000004,2.4000001 C17.2418282,2.4000001 17.6000004,2.7581723 17.6000004,3.20000011 L17.6000004,7.52999991 C17.6000004,7.97182772 17.2418282,8.32999992 16.8000004,8.32999992 L11.4700006,8.32999992 C11.0281728,8.32999992 10.6700006,7.97182772 10.6700006,7.52999991 L10.6700006,3.20000011 C10.6700006,2.7581723 11.0281728,2.4000001 11.4700006,2.4000001 Z M3.6000001,3.6000001 L3.6000001,9.12999992 L8.12999992,9.12999992 L8.12999992,3.6000001 L3.6000001,3.6000001 Z M3.20000011,2.4000001 L8.52999991,2.4000001 C8.97182772,2.4000001 9.32999992,2.7581723 9.32999992,3.20000011 L9.32999992,9.52999991 C9.32999992,9.97182772 8.97182772,10.3299999 8.52999991,10.3299999 L3.20000011,10.3299999 C2.7581723,10.3299999 2.4000001,9.97182772 2.4000001,9.52999991 L2.4000001,3.20000011 C2.4000001,2.7581723 2.7581723,2.4000001 3.20000011,2.4000001 Z M11.8700006,16.4000004 L16.4000004,16.4000004 L16.4000004,10.8700006 L11.8700006,10.8700006 L11.8700006,16.4000004 Z M11.4700006,9.67000055 L16.8000004,9.67000055 C17.2418282,9.67000055 17.6000004,10.0281728 17.6000004,10.4700006 L17.6000004,16.8000004 C17.6000004,17.2418282 17.2418282,17.6000004 16.8000004,17.6000004 L11.4700006,17.6000004 C11.0281728,17.6000004 10.6700006,17.2418282 10.6700006,16.8000004 L10.6700006,10.4700006 C10.6700006,10.0281728 11.0281728,9.67000055 11.4700006,9.67000055 Z" id="path-1"></path>
    </defs>
    <g id="Icon/Dashboard" stroke="none" stroke-width="1" fill="none" fill-rule="evenodd">
        <mask id="mask-2" fill="white">
            <use xlink:href="#path-1"></use>
        </mask>
        <use id="dashboard" fill="#A6A6A6" fill-rule="nonzero" xlink:href="#path-1"></use>
        <rect id="Color" fill="#333333" mask="url(#mask-2)" x="0" y="0" width="20" height="20"></rect>
    </g>
</svg>