<?xml version="1.0" encoding="UTF-8"?>
<svg width="20px" height="20px" viewBox="0 0 20 20" version="1.1" xmlns="http://www.w3.org/2000/svg" xmlns:xlink="http://www.w3.org/1999/xlink">
    <title>Icon/Description</title>
    <defs>
        <polygon id="path-1" points="0 20 20 20 20 0 0 0"></polygon>
        <path d="M10.7833,16.1436 L10.7833,12.8496 C10.7833,12.6336 10.9663,12.4496 11.1833,12.4496 L14.4773,12.4496 L10.7833,16.1436 L10.7833,16.1436 Z M4.8003,16.3996 L4.8003,3.5996 C4.8003,3.3836 4.9833,3.1996 5.2003,3.1996 L14.8003,3.1996 C15.0173,3.1996 15.2003,3.3836 15.2003,3.5996 L15.2003,11.2496 L11.1833,11.2496 C10.3033,11.2496 9.5833,11.9696 9.5833,12.8496 L9.5833,16.7996 L5.2003,16.7996 C4.9833,16.7996 4.8003,16.6166 4.8003,16.3996 L4.8003,16.3996 Z M14.8003,1.9996 C15.6803,1.9996 16.4003,2.7196 16.4003,3.5996 L16.4003,3.5996 L16.4003,11.5616 C16.4003,11.9856 16.2313,12.3926 15.9313,12.6926 L15.9313,12.6926 L11.0923,17.5316 C10.7923,17.8316 10.3853,17.9996 9.9613,17.9996 L9.9613,17.9996 L5.2003,17.9996 C4.3203,17.9996 3.6003,17.2796 3.6003,16.3996 L3.6003,16.3996 L3.6003,3.5996 C3.6003,2.7196 4.3203,1.9996 5.2003,1.9996 L5.2003,1.9996 Z M10.3331,8.5598 L6.6661,8.5598 C6.3351,8.5598 6.0661,8.8278 6.0661,9.1598 C6.0661,9.4908 6.3351,9.7598 6.6661,9.7598 L10.3331,9.7598 C10.6651,9.7598 10.9331,9.4908 10.9331,9.1598 C10.9331,8.8278 10.6651,8.5598 10.3331,8.5598 Z M13.3336,5.4089 L6.6666,5.4089 C6.3346,5.4089 6.0666,5.6769 6.0666,6.0089 C6.0666,6.3399 6.3346,6.6089 6.6666,6.6089 L13.3336,6.6089 C13.6646,6.6089 13.9336,6.3399 13.9336,6.0089 C13.9336,5.6769 13.6646,5.4089 13.3336,5.4089 Z" id="path-3"></path>
    </defs>
    <g id="Icon/Description" stroke="none" stroke-width="1" fill="none" fill-rule="evenodd">
        <g id="icon-book">
            <mask id="mask-2" fill="white">
                <use xlink:href="#path-1"></use>
            </mask>
            <g></g>
            <mask id="mask-4" fill="white">
                <use xlink:href="#path-3"></use>
            </mask>
            <use fill="#A6A6A6" xlink:href="#path-3"></use>
            <rect id="Color" fill="#333333" mask="url(#mask-4)" x="0" y="0" width="20" height="20"></rect>
        </g>
    </g>
</svg>