<?xml version="1.0" encoding="UTF-8"?>
<svg width="20px" height="20px" viewBox="0 0 20 20" version="1.1" xmlns="http://www.w3.org/2000/svg" xmlns:xlink="http://www.w3.org/1999/xlink">
    <title>Icon/Edit</title>
    <defs>
        <polygon id="path-1" points="0 20 20 20 20 0 0 0"></polygon>
        <path d="M16.162,5.0843 L14.904,3.8263 L15.522,3.2093 L16.816,4.4283 L16.162,5.0843 L16.162,5.0843 Z M10.329,10.9353 L8.62,11.3633 L9.024,9.7063 L14.055,4.6753 L15.315,5.9343 L10.329,10.9353 L10.329,10.9353 Z M10.1077,3.5642 C10.4377,3.5642 10.7077,3.8342 10.7077,4.1642 C10.7077,4.4942 10.4377,4.7642 10.1077,4.7642 L10.1077,4.7642 L3.9997,4.7642 C3.5667,4.7642 3.1997,5.1302 3.1997,5.5642 L3.1997,5.5642 L3.1997,16.0002 C3.1997,16.4332 3.5667,16.8002 3.9997,16.8002 L3.9997,16.8002 L14.4357,16.8002 C14.8697,16.8002 15.2357,16.4332 15.2357,16.0002 L15.2357,16.0002 L15.2357,9.5922 C15.2357,9.2622 15.5057,8.9922 15.8357,8.9922 C16.1657,8.9922 16.4357,9.2622 16.4357,9.5922 L16.4357,9.5922 L16.4357,16.0002 C16.4357,17.1002 15.5357,18.0002 14.4357,18.0002 L14.4357,18.0002 L3.9997,18.0002 C2.8997,18.0002 1.9997,17.1002 1.9997,16.0002 L1.9997,16.0002 L1.9997,5.5642 C1.9997,4.4642 2.8997,3.5642 3.9997,3.5642 L3.9997,3.5642 Z M14.711,2.3223 C15.143,1.8893 15.898,1.8903 16.33,2.3223 L16.33,2.3223 L17.665,3.6573 C18.11,4.1033 18.111,4.8293 17.665,5.2763 L17.665,5.2763 L11.129,11.8113 C10.988,11.9533 10.811,12.0523 10.618,12.1003 L10.618,12.1003 L7.947,12.7683 C7.899,12.7803 7.85,12.7863 7.801,12.7863 C7.644,12.7863 7.491,12.7243 7.377,12.6103 C7.228,12.4613 7.168,12.2453 7.219,12.0403 L7.219,12.0403 L7.887,9.3673 C7.936,9.1753 8.035,9.0003 8.174,8.8593 L8.174,8.8593 Z" id="path-3"></path>
    </defs>
    <g id="Icon/Edit" stroke="none" stroke-width="1" fill="none" fill-rule="evenodd">
        <mask id="mask-2" fill="white">
            <use xlink:href="#path-1"></use>
        </mask>
        <g id="icon-edit"></g>
        <mask id="mask-4" fill="white">
            <use xlink:href="#path-3"></use>
        </mask>
        <use id="icon-edit" fill="#A6A6A6" xlink:href="#path-3"></use>
        <rect id="Color" fill="#333333" mask="url(#mask-4)" x="0" y="0" width="20" height="20"></rect>
    </g>
</svg>