<?xml version="1.0" encoding="UTF-8"?>
<svg width="20px" height="20px" viewBox="0 0 20 20" version="1.1" xmlns="http://www.w3.org/2000/svg" xmlns:xlink="http://www.w3.org/1999/xlink">
    <title>Icon/Emoji</title>
    <defs>
        <polygon id="path-1" points="0 20 20 20 20 0 0 0"></polygon>
        <path d="M10,2 C5.582,2 2,5.582 2,10 C2,14.418 5.582,18 10,18 C14.418,18 18,14.418 18,10 C18,5.582 14.418,2 10,2 L10,2 Z M10,3.2 C13.75,3.2 16.8,6.25 16.8,10 C16.8,13.75 13.75,16.8 10,16.8 C6.25,16.8 3.2,13.75 3.2,10 C3.2,6.25 6.25,3.2 10,3.2 Z M14.0961,10.4998 C13.7861,10.3808 13.4391,10.5358 13.3211,10.8448 C12.7861,12.2388 11.4831,13.1408 10.0001,13.1408 C8.5171,13.1408 7.2141,12.2388 6.6791,10.8448 C6.5601,10.5348 6.2121,10.3808 5.9041,10.4998 C5.5941,10.6188 5.4401,10.9648 5.5591,11.2748 C6.2731,13.1368 8.0161,14.3398 10.0001,14.3398 C11.9841,14.3398 13.7281,13.1368 14.4411,11.2748 C14.5601,10.9648 14.4051,10.6178 14.0961,10.4998 Z M12.9206,7.5073 C12.4596,7.5073 12.0866,7.8803 12.0866,8.3403 C12.0866,8.8003 12.4596,9.1733 12.9206,9.1733 C13.3806,9.1733 13.7536,8.8003 13.7536,8.3403 C13.7536,7.8803 13.3806,7.5073 12.9206,7.5073 Z M7.08,7.4944 C6.619,7.4944 6.246,7.8674 6.246,8.3274 C6.246,8.7874 6.619,9.1604 7.08,9.1604 C7.54,9.1604 7.913,8.7874 7.913,8.3274 C7.913,7.8674 7.54,7.4944 7.08,7.4944 Z" id="path-3"></path>
    </defs>
    <g id="Icon/Emoji" stroke="none" stroke-width="1" fill="none" fill-rule="evenodd">
        <mask id="mask-2" fill="white">
            <use xlink:href="#path-1"></use>
        </mask>
        <g id="icon-emoji"></g>
        <mask id="mask-4" fill="white">
            <use xlink:href="#path-3"></use>
        </mask>
        <use id="icon-emoji" fill="#A6A6A6" xlink:href="#path-3"></use>
        <rect id="Color" fill="#333333" mask="url(#mask-4)" x="0" y="0" width="20" height="20"></rect>
    </g>
</svg>