<?xml version="1.0" encoding="UTF-8"?>
<svg width="20px" height="20px" viewBox="0 0 20 20" version="1.1" xmlns="http://www.w3.org/2000/svg" xmlns:xlink="http://www.w3.org/1999/xlink">
    <title>Icon/Eye</title>
    <defs>
        <polygon id="path-1" points="0 20 20 20 20 0 0 0"></polygon>
        <path d="M3.2848,10 C4.9378,12.928 7.3718,14.601 9.9998,14.601 C12.6278,14.601 15.0618,12.928 16.7158,10 C15.0618,7.072 12.6278,5.4 9.9998,5.4 C7.3718,5.4 4.9378,7.072 3.2848,10 L3.2848,10 Z M9.9998,15.8 C6.8768,15.8 3.9128,13.737 2.0708,10.282 C1.9768,10.106 1.9768,9.894 2.0708,9.718 C3.9128,6.263 6.8768,4.2 9.9998,4.2 C13.1228,4.2 16.0868,6.263 17.9298,9.718 C18.0238,9.894 18.0238,10.106 17.9298,10.282 C16.0868,13.737 13.1228,15.8 9.9998,15.8 L9.9998,15.8 Z M10.0001,8.1001 C8.9521,8.1001 8.1001,8.9521 8.1001,10.0001 C8.1001,11.0481 8.9521,11.9001 10.0001,11.9001 C11.0481,11.9001 11.9001,11.0481 11.9001,10.0001 C11.9001,8.9521 11.0481,8.1001 10.0001,8.1001 M10.0001,13.1001 C8.2911,13.1001 6.9001,11.7091 6.9001,10.0001 C6.9001,8.2901 8.2911,6.9001 10.0001,6.9001 C11.7091,6.9001 13.1001,8.2901 13.1001,10.0001 C13.1001,11.7091 11.7091,13.1001 10.0001,13.1001" id="path-3"></path>
    </defs>
    <g id="Icon/Eye" stroke="none" stroke-width="1" fill="none" fill-rule="evenodd">
        <g id="icon-eye">
            <mask id="mask-2" fill="white">
                <use xlink:href="#path-1"></use>
            </mask>
            <g></g>
            <mask id="mask-4" fill="white">
                <use xlink:href="#path-3"></use>
            </mask>
            <use fill="#A6A6A6" xlink:href="#path-3"></use>
            <rect id="Color" fill="#333333" mask="url(#mask-4)" x="0" y="0" width="20" height="20"></rect>
        </g>
    </g>
</svg>