<?xml version="1.0" encoding="UTF-8"?>
<svg width="20px" height="20px" viewBox="0 0 20 20" version="1.1" xmlns="http://www.w3.org/2000/svg" xmlns:xlink="http://www.w3.org/1999/xlink">
    <title>Icon/File</title>
    <defs>
        <polygon id="path-1" points="0 20 20 20 20 0 0 0"></polygon>
        <path d="M14.8,16.8 L5.2,16.8 C4.983,16.8 4.8,16.617 4.8,16.4 L4.8,3.6 C4.8,3.383 4.983,3.2 5.2,3.2 L9.601,3.2 L9.601,7.083 C9.601,8 10.351,8.75 11.268,8.75 L15.2,8.75 L15.2,16.4 C15.2,16.617 15.017,16.8 14.8,16.8 L14.8,16.8 Z M10.801,3.874 L14.477,7.55 L11.268,7.55 C11.015,7.55 10.801,7.336 10.801,7.083 L10.801,3.874 L10.801,3.874 Z M9.961,2 C10.386,2 10.793,2.169 11.093,2.469 L11.093,2.469 L15.931,7.307 C16.231,7.607 16.4,8.014 16.4,8.439 L16.4,8.439 L16.4,16.4 C16.4,17.28 15.68,18 14.8,18 L14.8,18 L5.2,18 C4.32,18 3.6,17.28 3.6,16.4 L3.6,16.4 L3.6,3.6 C3.6,2.72 4.32,2 5.2,2 L5.2,2 Z M9.6012,14.04 L6.2682,14.04 C5.9362,14.04 5.6672,14.309 5.6672,14.64 C5.6672,14.971 5.9362,15.239 6.2682,15.239 L9.6012,15.239 C9.9332,15.239 10.2012,14.971 10.2012,14.64 C10.2012,14.309 9.9332,14.04 9.6012,14.04 Z M12.9342,11.2334 L6.2672,11.2334 C5.9362,11.2334 5.6672,11.5024 5.6672,11.8334 C5.6672,12.1654 5.9362,12.4334 6.2672,12.4334 L12.9342,12.4334 C13.2662,12.4334 13.5342,12.1654 13.5342,11.8334 C13.5342,11.5024 13.2662,11.2334 12.9342,11.2334 Z" id="path-3"></path>
    </defs>
    <g id="Icon/File" stroke="none" stroke-width="1" fill="none" fill-rule="evenodd">
        <g id="icon-file3">
            <mask id="mask-2" fill="white">
                <use xlink:href="#path-1"></use>
            </mask>
            <g></g>
            <mask id="mask-4" fill="white">
                <use xlink:href="#path-3"></use>
            </mask>
            <use fill="#A6A6A6" xlink:href="#path-3"></use>
            <rect id="Color" fill="#333333" mask="url(#mask-4)" x="0" y="0" width="20" height="20"></rect>
        </g>
    </g>
</svg>