<?xml version="1.0" encoding="UTF-8"?>
<svg width="20px" height="20px" viewBox="0 0 20 20" version="1.1" xmlns="http://www.w3.org/2000/svg" xmlns:xlink="http://www.w3.org/1999/xlink">
    <title>Icon/Groupchat</title>
    <defs>
        <polygon id="path-1" points="0 20 20 20 20 0 0 0"></polygon>
        <path d="M13.9,2.9488 C14.835,2.9488 15.6,3.7138 15.6,4.6488 L15.6,4.6488 L15.6,6.5388 L16.5,6.5388 C17.325,6.5388 18,7.2138 18,8.0388 L18,8.0388 L18,16.3008 C18,16.5848 17.839,16.8448 17.585,16.9718 C17.479,17.0248 17.364,17.0508 17.25,17.0508 C17.091,17.0508 16.932,16.9998 16.8,16.9008 L16.8,16.9008 L14.987,15.5388 L7.5,15.5388 C6.675,15.5388 6,14.8638 6,14.0388 L6,14.0388 L6,13.1488 L5.414,13.1488 L3.36,14.6918 C3.21,14.8048 3.031,14.8618 2.85,14.8618 C2.72,14.8618 2.59,14.8328 2.47,14.7728 C2.182,14.6288 2,14.3348 2,14.0118 L2,14.0118 L2,4.6488 C2,3.7138 2.765,2.9488 3.7,2.9488 L3.7,2.9488 Z M16.5,7.7388 L15.6,7.7388 L15.6,11.4488 C15.6,12.3848 14.835,13.1488 13.9,13.1488 L13.9,13.1488 L7.2,13.1488 L7.2,14.0388 C7.2,14.2018 7.337,14.3388 7.5,14.3388 L7.5,14.3388 L14.987,14.3388 C15.247,14.3388 15.5,14.4238 15.708,14.5798 L15.708,14.5798 L16.8,15.3998 L16.8,8.0388 C16.8,7.8768 16.663,7.7388 16.5,7.7388 L16.5,7.7388 Z M13.9,4.1488 L3.7,4.1488 C3.429,4.1488 3.2,4.3778 3.2,4.6488 L3.2,4.6488 L3.2,13.3118 L4.694,12.1898 C4.902,12.0338 5.155,11.9488 5.414,11.9488 L5.414,11.9488 L13.9,11.9488 C14.171,11.9488 14.4,11.7208 14.4,11.4488 L14.4,11.4488 L14.4,4.6488 C14.4,4.3778 14.171,4.1488 13.9,4.1488 L13.9,4.1488 Z M8.7408,8.8584 C9.0728,8.8584 9.3408,9.1274 9.3408,9.4584 C9.3408,9.7904 9.0728,10.0584 8.7408,10.0584 L8.7408,10.0584 L5.4318,10.0584 C5.1008,10.0584 4.8318,9.7904 4.8318,9.4584 C4.8318,9.1274 5.1008,8.8584 5.4318,8.8584 L5.4318,8.8584 Z M12.0499,5.9346 C12.3819,5.9346 12.6499,6.2036 12.6499,6.5346 C12.6499,6.8666 12.3819,7.1346 12.0499,7.1346 L12.0499,7.1346 L5.4319,7.1346 C5.1009,7.1346 4.8319,6.8666 4.8319,6.5346 C4.8319,6.2036 5.1009,5.9346 5.4319,5.9346 L5.4319,5.9346 Z" id="path-3"></path>
    </defs>
    <g id="Icon/Groupchat" stroke="none" stroke-width="1" fill="none" fill-rule="evenodd">
        <mask id="mask-2" fill="white">
            <use xlink:href="#path-1"></use>
        </mask>
        <g id="icon-chat-group-stroke"></g>
        <mask id="mask-4" fill="white">
            <use xlink:href="#path-3"></use>
        </mask>
        <use id="icon-chat-group-stroke" fill="#A6A6A6" xlink:href="#path-3"></use>
        <rect id="Color" fill="#333333" mask="url(#mask-4)" x="0" y="0" width="20" height="20"></rect>
    </g>
</svg>