<?xml version="1.0" encoding="UTF-8"?>
<svg width="20px" height="20px" viewBox="0 0 20 20" version="1.1" xmlns="http://www.w3.org/2000/svg" xmlns:xlink="http://www.w3.org/1999/xlink">
    <title>Icon/Home</title>
    <defs>
        <polygon id="path-1" points="0 20 20 20 20 0 0 0"></polygon>
        <path d="M14.9327877,9.5961 C14.6007877,9.5961 14.3327877,9.8651 14.3327877,10.1961 L14.3327877,16.1491 L12.1737877,16.1491 L12.1737877,11.9481 C12.1737877,11.6171 11.9057877,11.3481 11.5737877,11.3481 L8.42478773,11.3481 C8.09378773,11.3481 7.82478773,11.6171 7.82478773,11.9481 L7.82478773,16.1491 L5.66578773,16.1491 L5.66578773,10.1961 C5.66578773,9.8651 5.39778773,9.5961 5.06578773,9.5961 L4.02078773,9.5961 L9.99978773,3.4531 L15.9777877,9.5961 L14.9327877,9.5961 Z M9.02478773,16.1491 L10.9737877,16.1491 L10.9737877,12.5481 L9.02478773,12.5481 L9.02478773,16.1491 Z M17.8297877,9.7781 L10.4297877,2.1741 C10.2037877,1.9421 9.79578773,1.9421 9.56978773,2.1741 L2.16978773,9.7781 C2.00178773,9.9501 1.95378773,10.2071 2.04678773,10.4291 C2.14078773,10.6521 2.35878773,10.7961 2.59978773,10.7961 L4.46578773,10.7961 L4.46578773,16.7481 C4.46578773,17.0791 4.73478773,17.3481 5.06578773,17.3481 L8.42478773,17.3481 L11.5737877,17.3481 L14.9327877,17.3481 C15.2647877,17.3481 15.5327877,17.0791 15.5327877,16.7481 L15.5327877,10.7961 L17.3997877,10.7961 C17.6407877,10.7961 17.8587877,10.6521 17.9527877,10.4291 C18.0457877,10.2071 17.9977877,9.9501 17.8297877,9.7781 L17.8297877,9.7781 Z" id="path-3"></path>
    </defs>
    <g id="Icon/Home" stroke="none" stroke-width="1" fill="none" fill-rule="evenodd">
        <g id="icon-home">
            <mask id="mask-2" fill="white">
                <use xlink:href="#path-1"></use>
            </mask>
            <g></g>
            <mask id="mask-4" fill="white">
                <use xlink:href="#path-3"></use>
            </mask>
            <use fill="#A6A6A6" xlink:href="#path-3"></use>
            <rect id="Color" fill="#333333" mask="url(#mask-4)" x="0" y="0" width="20" height="20"></rect>
        </g>
    </g>
</svg>