<?xml version="1.0" encoding="UTF-8"?>
<svg width="20px" height="20px" viewBox="0 0 20 20" version="1.1" xmlns="http://www.w3.org/2000/svg" xmlns:xlink="http://www.w3.org/1999/xlink">
    <title>Icon/Inbox</title>
    <defs>
        <polygon id="path-1" points="0 20 20 20 20 0 0 0"></polygon>
        <path d="M5.5376,15.4122 C5.9726,14.7502 6.2006,13.9842 6.2006,13.1892 L6.2006,9.4182 C6.2006,7.3242 7.9056,5.6192 9.9996,5.6192 C12.0946,5.6192 13.7986,7.3242 13.7986,9.4182 L13.7986,13.1892 C13.7986,13.9852 14.0276,14.7502 14.4626,15.4122 L5.5376,15.4122 L5.5376,15.4122 Z M10.0796,3.2002 C10.3366,3.2002 10.5456,3.4092 10.5456,3.6662 C10.5456,3.9232 10.3366,4.1322 10.0796,4.1322 C9.8226,4.1322 9.6136,3.9232 9.6136,3.6662 C9.6136,3.4092 9.8226,3.2002 10.0796,3.2002 L10.0796,3.2002 Z M15.9826,15.4842 L15.5276,14.8442 C15.1836,14.3602 14.9986,13.7822 14.9986,13.1892 L14.9986,9.4182 C14.9986,7.1642 13.4776,5.2692 11.4176,4.6512 C11.6216,4.3742 11.7456,4.0362 11.7456,3.6662 C11.7456,2.7462 10.9996,2.0002 10.0796,2.0002 C9.1596,2.0002 8.4136,2.7462 8.4136,3.6662 C8.4136,4.0172 8.5236,4.3422 8.7086,4.6112 C6.5836,5.1872 5.0006,7.1182 5.0006,9.4182 L5.0006,13.1892 C5.0006,13.7822 4.8166,14.3602 4.4726,14.8442 L4.0176,15.4842 C3.8626,15.7022 3.8426,15.9882 3.9646,16.2252 C4.0876,16.4632 4.3326,16.6122 4.5996,16.6122 L8.0016,16.6122 C8.3076,17.4212 9.0836,18.0002 9.9996,18.0002 C10.9166,18.0002 11.6926,17.4212 11.9986,16.6122 L15.4006,16.6122 C15.6676,16.6122 15.9126,16.4632 16.0346,16.2252 C16.1576,15.9882 16.1376,15.7022 15.9826,15.4842 L15.9826,15.4842 Z" id="path-3"></path>
    </defs>
    <g id="Icon/Inbox" stroke="none" stroke-width="1" fill="none" fill-rule="evenodd">
        <mask id="mask-2" fill="white">
            <use xlink:href="#path-1"></use>
        </mask>
        <g id="icon-inbox"></g>
        <mask id="mask-4" fill="white">
            <use xlink:href="#path-3"></use>
        </mask>
        <use id="icon-inbox" fill="#A6A6A6" xlink:href="#path-3"></use>
        <rect id="Color" fill="#333333" mask="url(#mask-4)" x="0" y="0" width="20" height="20"></rect>
    </g>
</svg>