<?xml version="1.0" encoding="UTF-8"?>
<svg width="20px" height="20px" viewBox="0 0 20 20" version="1.1" xmlns="http://www.w3.org/2000/svg" xmlns:xlink="http://www.w3.org/1999/xlink">
    <title>Icon/Menu</title>
    <defs>
        <polygon id="path-1" points="0 20 20 20 20 0 0 0"></polygon>
        <path d="M15.8331,13.5764 C16.1651,13.5764 16.4331,13.8444 16.4331,14.1754 C16.4331,14.5064 16.1651,14.7754 15.8331,14.7754 L4.1661,14.7754 C3.8351,14.7754 3.5661,14.5064 3.5661,14.1754 C3.5661,13.8444 3.8351,13.5764 4.1661,13.5764 L15.8331,13.5764 Z M15.8331,9.3913 C16.1651,9.3913 16.4331,9.6593 16.4331,9.9913 C16.4331,10.3223 16.1651,10.5913 15.8331,10.5913 L4.1661,10.5913 C3.8351,10.5913 3.5661,10.3223 3.5661,9.9913 C3.5661,9.6593 3.8351,9.3913 4.1661,9.3913 L15.8331,9.3913 Z M15.8331,5.2248 C16.1651,5.2248 16.4331,5.4928 16.4331,5.8248 C16.4331,6.1558 16.1651,6.4248 15.8331,6.4248 L4.1661,6.4248 C3.8351,6.4248 3.5661,6.1558 3.5661,5.8248 C3.5661,5.4928 3.8351,5.2248 4.1661,5.2248 L15.8331,5.2248 Z" id="path-3"></path>
    </defs>
    <g id="Icon/Menu" stroke="none" stroke-width="1" fill="none" fill-rule="evenodd">
        <mask id="mask-2" fill="white">
            <use xlink:href="#path-1"></use>
        </mask>
        <g id="icon-menu"></g>
        <mask id="mask-4" fill="white">
            <use xlink:href="#path-3"></use>
        </mask>
        <use id="icon-menu" fill="#A6A6A6" xlink:href="#path-3"></use>
        <rect id="Color" fill="#333333" mask="url(#mask-4)" x="0" y="0" width="20" height="20"></rect>
    </g>
</svg>