<?xml version="1.0" encoding="UTF-8"?>
<svg width="20px" height="20px" viewBox="0 0 20 20" version="1.1" xmlns="http://www.w3.org/2000/svg" xmlns:xlink="http://www.w3.org/1999/xlink">
    <title>Icon/More</title>
    <defs>
        <polygon id="path-1" points="0 20 20 20 20 1.13686838e-13 0 1.13686838e-13"></polygon>
        <path d="M9.9996,13.401 C10.8836,13.401 11.5996,14.117 11.5996,15.001 C11.5996,15.885 10.8836,16.601 9.9996,16.601 C9.1156,16.601 8.3996,15.885 8.3996,15.001 C8.3996,14.117 9.1156,13.401 9.9996,13.401 Z M10.0004,8.3998 C10.8844,8.3998 11.6004,9.1158 11.6004,9.9998 C11.6004,10.8838 10.8844,11.5998 10.0004,11.5998 C9.1164,11.5998 8.4004,10.8838 8.4004,9.9998 C8.4004,9.1158 9.1164,8.3998 10.0004,8.3998 Z M10.0004,3.399 C10.8844,3.399 11.6004,4.115 11.6004,4.999 C11.6004,5.883 10.8844,6.599 10.0004,6.599 C9.1164,6.599 8.4004,5.883 8.4004,4.999 C8.4004,4.115 9.1164,3.399 10.0004,3.399 Z" id="path-3"></path>
    </defs>
    <g id="Icon/More" stroke="none" stroke-width="1" fill="none" fill-rule="evenodd">
        <g id="icon-more" transform="translate(10.000000, 10.000000) rotate(-90.000000) translate(-10.000000, -10.000000) ">
            <mask id="mask-2" fill="white">
                <use xlink:href="#path-1"></use>
            </mask>
            <g></g>
            <mask id="mask-4" fill="white">
                <use xlink:href="#path-3"></use>
            </mask>
            <use fill="#A6A6A6" xlink:href="#path-3"></use>
            <rect id="Color" fill="#333333" mask="url(#mask-4)" x="0" y="0" width="20" height="20"></rect>
        </g>
    </g>
</svg>