<?xml version="1.0" encoding="UTF-8"?>
<svg width="20px" height="20px" viewBox="0 0 20 20" version="1.1" xmlns="http://www.w3.org/2000/svg" xmlns:xlink="http://www.w3.org/1999/xlink">
    <title>Icon/Move</title>
    <defs>
        <polygon id="path-1" points="0 20 20 20 20 0 0 0"></polygon>
        <path d="M9.03444719,16.2600007 C9.30882381,16.2600007 9.53125,16.4913722 9.53125,16.7619545 L9.53125,16.9580439 C9.53125,17.2352653 9.31642517,17.4600927 9.02929555,17.4602197 L3.875,17.4625001 C3.35416667,17.4625001 2.91145833,17.2802084 2.546875,16.9156251 C2.18229167,16.5510418 2,16.1083334 2,15.5875001 L2,4.2750001 C2,3.75416676 2.18229167,3.31145843 2.546875,2.9468751 C2.91145833,2.58229176 3.35416667,2.4000001 3.875,2.4000001 L15.1875,2.4000001 C15.7083333,2.4000001 16.1510417,2.58229176 16.515625,2.9468751 C16.8802083,3.31145843 17.0625,3.75416676 17.0625,4.2750001 L17.0603247,7.56191769 C17.060144,7.83492994 16.8286261,8.0562501 16.5580438,8.0562501 L16.3619544,8.0562501 C16.084733,8.0562501 15.8600006,7.84131593 15.8600006,7.56232703 L15.8600006,4.60007017 C15.8600006,4.04774714 15.4094244,3.60000086 14.8665914,3.60000086 L4.1934062,3.60000086 C3.64476142,3.60000086 3.19999695,4.05057696 3.19999695,4.59340981 L3.19999695,15.2665918 C3.19999695,15.8152364 3.65532505,16.2600007 4.20320282,16.2600007 L9.03444719,16.2600007 Z M14.8894023,16.1829808 C14.6916002,16.3718729 14.53125,16.302752 14.53125,16.0297265 L14.53125,14.7125001 L11.9083353,14.7125001 C11.6310413,14.7125001 11.40625,14.4795473 11.40625,14.2222714 L11.40625,12.2339788 C11.40625,11.963233 11.6309923,11.7415027 11.9083353,11.7387292 L14.53125,11.7125001 L14.53125,10.4369203 C14.53125,10.1576463 14.698555,10.0895116 14.8894023,10.2700428 L17.6418477,12.8737074 C17.8396498,13.0608175 17.832695,13.3722689 17.6418477,13.5545194 L14.8894023,16.1829808 Z" id="path-3"></path>
    </defs>
    <g id="Icon/Move" stroke="none" stroke-width="1" fill="none" fill-rule="evenodd">
        <g id="icon-move">
            <mask id="mask-2" fill="white">
                <use xlink:href="#path-1"></use>
            </mask>
            <g id="icon-checkbox-ios-checked"></g>
            <mask id="mask-4" fill="white">
                <use xlink:href="#path-3"></use>
            </mask>
            <use id="Shape" fill="#000000" xlink:href="#path-3"></use>
            <rect id="Color" fill="#333333" mask="url(#mask-4)" x="0" y="0" width="20" height="20"></rect>
        </g>
    </g>
</svg>