<?xml version="1.0" encoding="UTF-8"?>
<svg width="20px" height="20px" viewBox="0 0 20 20" version="1.1" xmlns="http://www.w3.org/2000/svg" xmlns:xlink="http://www.w3.org/1999/xlink">
    <title>Icon/Picture</title>
    <defs>
        <polygon id="path-1" points="0 20 20 20 20 0 0 0"></polygon>
        <path d="M4,16 C3.955,16 3.914,15.981 3.871,15.973 L8.351,11.114 L10.645,13.601 C10.758,13.725 10.918,13.794 11.086,13.794 C11.253,13.794 11.413,13.725 11.526,13.602 L12.735,12.291 L16.131,15.973 C16.086,15.981 16.046,16 16,16 L4,16 L4,16 Z M4,4 L16,4 C16.434,4 16.8,4.366 16.8,4.8 L16.8,14.93 L13.176,10.999 C13.063,10.876 12.902,10.806 12.735,10.806 C12.568,10.806 12.407,10.876 12.294,10.999 L11.086,12.309 L8.792,9.822 C8.566,9.576 8.137,9.576 7.91,9.822 L3.2,14.932 L3.2,4.8 C3.2,4.366 3.566,4 4,4 L4,4 Z M16,2.8 C17.1,2.8 18,3.7 18,4.8 L18,4.8 L18,15.2 C18,16.3 17.1,17.2 16,17.2 L16,17.2 L4,17.2 C2.9,17.2 2,16.3 2,15.2 L2,15.2 L2,4.8 C2,3.7 2.9,2.8 4,2.8 L4,2.8 Z M13.1129,6.4665 C12.1209,6.4665 11.3129,7.2735 11.3129,8.2665 C11.3129,9.2585 12.1209,10.0665 13.1129,10.0665 C14.1059,10.0665 14.9129,9.2585 14.9129,8.2665 C14.9129,7.2735 14.1059,6.4665 13.1129,6.4665 Z M13.1129,7.6665 C13.4439,7.6665 13.7129,7.9355 13.7129,8.2665 C13.7129,8.5975 13.4439,8.8665 13.1129,8.8665 C12.7819,8.8665 12.5129,8.5975 12.5129,8.2665 C12.5129,7.9355 12.7819,7.6665 13.1129,7.6665 Z" id="path-3"></path>
    </defs>
    <g id="Icon/Picture" stroke="none" stroke-width="1" fill="none" fill-rule="evenodd">
        <mask id="mask-2" fill="white">
            <use xlink:href="#path-1"></use>
        </mask>
        <g id="icon-picture"></g>
        <mask id="mask-4" fill="white">
            <use xlink:href="#path-3"></use>
        </mask>
        <use id="icon-picture" fill="#A6A6A6" xlink:href="#path-3"></use>
        <rect id="Color" fill="#333333" mask="url(#mask-4)" x="0" y="0" width="20" height="20"></rect>
    </g>
</svg>