<?xml version="1.0" encoding="UTF-8"?>
<svg width="20px" height="20px" viewBox="0 0 20 20" version="1.1" xmlns="http://www.w3.org/2000/svg" xmlns:xlink="http://www.w3.org/1999/xlink">
    <title>Icon/Piechart</title>
    <defs>
        <polygon id="path-1" points="0 20 20 20 20 0 0 0"></polygon>
        <path d="M3.475,10.4146771 C3.475,13.8112283 6.22844879,16.5646771 9.625,16.5646771 C13.0215512,16.5646771 15.775,13.8112283 15.775,10.4146771 C15.775,10.4116463 13.9295455,10.4071009 10.2386364,10.4010407 C9.90726551,10.4010407 9.63863636,10.1324116 9.63863636,9.80104072 L9.63863636,4.26467708 C6.22844879,4.26467708 3.475,7.01812587 3.475,10.4146771 Z M9.625,3.06467708 C9.84878432,3.06467708 10.0714328,3.07469559 10.292487,3.09461586 C10.6017371,3.12248387 10.8386364,3.38169118 10.8386364,3.69219439 L10.8386364,9.20104072 L16.3474827,9.20104072 C16.6579859,9.20104072 16.9171932,9.43793995 16.9450612,9.74719003 C16.9649815,9.96824428 16.975,10.1908928 16.975,10.4146771 C16.975,14.47397 13.6842929,17.7646771 9.625,17.7646771 C5.56570709,17.7646771 2.275,14.47397 2.275,10.4146771 C2.275,6.35538417 5.56570709,3.06467708 9.625,3.06467708 Z M12.475,2.42500001 C15.2918359,2.42500001 17.575,4.70834061 17.575,7.52500001 C17.575,7.85637086 17.3063709,8.12500001 16.975,8.12500001 L12.475,8.12500001 C12.1435971,8.12500001 11.875,7.85632088 11.875,7.524918 L11.875,3.02587479 L11.875,3.02587479 C11.874517,2.69416262 12.1432875,2.42500001 12.475,2.42500001 Z M13.0752202,3.67089639 L13.07507,6.92500001 L13.07507,6.92500001 L16.3291361,6.92500001 C16.0707663,5.2515709 14.7486938,3.92936395 13.0752202,3.67089639 Z" id="path-3"></path>
    </defs>
    <g id="Icon/Piechart" stroke="none" stroke-width="1" fill="none" fill-rule="evenodd">
        <mask id="mask-2" fill="white">
            <use xlink:href="#path-1"></use>
        </mask>
        <g id="box"></g>
        <mask id="mask-4" fill="white">
            <use xlink:href="#path-3"></use>
        </mask>
        <use id="icon-piechart" fill="#A6A6A6" fill-rule="nonzero" xlink:href="#path-3"></use>
        <rect id="Color" fill="#333333" mask="url(#mask-4)" x="0" y="0" width="20" height="20"></rect>
    </g>
</svg>