<?xml version="1.0" encoding="UTF-8"?>
<svg width="20px" height="20px" viewBox="0 0 20 20" version="1.1" xmlns="http://www.w3.org/2000/svg" xmlns:xlink="http://www.w3.org/1999/xlink">
    <title>Icon/Post</title>
    <defs>
        <path d="M17.3665747,3.14647921 L17.3610293,3.20785296 C17.3591597,3.22127938 17.3568376,3.23464516 17.3540656,3.24792542 L14.5217909,17.4053456 C14.4352172,17.8382146 13.9265957,18.0325408 13.5734425,17.767676 L8.879,14.247 L6.60183047,16.9684953 C6.26319179,17.3729804 5.62298032,17.1713959 5.54883308,16.6789904 L5.54177586,16.5833333 L5.541,11.743 L2.2401092,9.26767595 C1.86564114,8.98682491 1.94266871,8.40443237 2.37727479,8.23058994 L16.5439415,2.56392327 C16.9568455,2.39876165 17.3870264,2.72268532 17.3665747,3.14647921 Z M15.855,4.622 L7.235,11.518 L13.5318057,16.2404391 L15.855,4.622 Z M6.741,12.643 L6.74177586,14.931995 L7.918,13.526 L6.741,12.643 Z M13.228,5.186 L3.81421335,8.95224478 L6.243,10.774 L13.228,5.186 Z" id="path-1"></path>
    </defs>
    <g id="Icon/Post" stroke="none" stroke-width="1" fill="none" fill-rule="evenodd">
        <mask id="mask-2" fill="white">
            <use xlink:href="#path-1"></use>
        </mask>
        <use id="Combined-Shape" fill="#A6A6A6" fill-rule="nonzero" xlink:href="#path-1"></use>
        <rect id="Color" fill="#333333" mask="url(#mask-2)" x="0" y="0" width="20" height="20"></rect>
    </g>
</svg>