<?xml version="1.0" encoding="UTF-8"?>
<svg width="20px" height="20px" viewBox="0 0 20 20" version="1.1" xmlns="http://www.w3.org/2000/svg" xmlns:xlink="http://www.w3.org/1999/xlink">
    <title>Icon/Project</title>
    <defs>
        <polygon id="path-1" points="0 20 20 20 20 0 0 0"></polygon>
        <path d="M10.0001,3.1997 C9.9091,3.1997 9.8171,3.2207 9.7391,3.2607 L3.3641,6.5637 C3.2721,6.6117 3.2121,6.6817 3.2121,6.7427 C3.2121,6.8037 3.2721,6.8737 3.3641,6.9217 L9.7391,10.2247 C9.8961,10.3047 10.1041,10.3047 10.2611,10.2247 L16.6361,6.9217 C16.7281,6.8737 16.7871,6.8037 16.7871,6.7427 C16.7871,6.6817 16.7281,6.6117 16.6361,6.5637 L10.2611,3.2607 C10.1831,3.2207 10.0911,3.1997 10.0001,3.1997 L10.0001,3.1997 Z M10.5371,10.7577 L10.5461,10.7577 L10.5371,10.7577 L10.5371,10.7577 Z M17.9201,13.457 C18.0721,13.752 17.9581,14.113 17.6631,14.267 L10.8491,17.797 C10.5871,17.932 10.2931,18 10.0001,18 C9.7061,18 9.4131,17.933 9.1501,17.797 L2.3361,14.267 C2.0421,14.113 1.9271,13.752 2.0801,13.457 C2.2311,13.162 2.5931,13.05 2.8881,13.2 L9.7021,16.73 C9.8801,16.824 10.1201,16.825 10.2971,16.73 L17.1111,13.2 C17.4041,13.05 17.7671,13.162 17.9201,13.457 Z M17.9201,10.1367 C18.0721,10.4297 17.9581,10.7927 17.6631,10.9447 L10.8491,14.4757 C10.5871,14.6107 10.2931,14.6787 10.0001,14.6787 C9.7061,14.6787 9.4131,14.6117 9.1501,14.4757 L2.3361,10.9447 C2.0421,10.7927 1.9271,10.4297 2.0801,10.1367 C2.2311,9.8417 2.5931,9.7257 2.8881,9.8797 L9.7021,13.4087 C9.8801,13.5037 10.1201,13.5037 10.2971,13.4087 L17.1111,9.8797 C17.4041,9.7257 17.7671,9.8417 17.9201,10.1367 Z M10.8121,2.1947 L17.1871,5.4977 C17.6811,5.7537 17.9871,6.2307 17.9871,6.7427 C17.9871,7.2547 17.6811,7.7317 17.1871,7.9877 L10.8121,11.2907 C10.5621,11.4207 10.2811,11.4857 10.0001,11.4857 C9.7191,11.4857 9.4381,11.4207 9.1881,11.2907 L2.8131,7.9877 C2.3191,7.7317 2.0121,7.2547 2.0121,6.7427 C2.0121,6.2307 2.3191,5.7537 2.8131,5.4977 L9.1881,2.1947 C9.6881,1.9357 10.3111,1.9357 10.8121,2.1947 Z" id="path-3"></path>
    </defs>
    <g id="Icon/Project" stroke="none" stroke-width="1" fill="none" fill-rule="evenodd">
        <mask id="mask-2" fill="white">
            <use xlink:href="#path-1"></use>
        </mask>
        <g id="icon-org-projects"></g>
        <mask id="mask-4" fill="white">
            <use xlink:href="#path-3"></use>
        </mask>
        <use id="icon-org-projects" fill="#A6A6A6" xlink:href="#path-3"></use>
        <rect id="Color" fill="#333333" mask="url(#mask-4)" x="0" y="0" width="20" height="20"></rect>
    </g>
</svg>