<?xml version="1.0" encoding="UTF-8"?>
<svg width="20px" height="20px" viewBox="0 0 20 20" version="1.1" xmlns="http://www.w3.org/2000/svg" xmlns:xlink="http://www.w3.org/1999/xlink">
    <title>Icon/Question</title>
    <defs>
        <polygon id="path-1" points="0 20 20 20 20 0 0 0"></polygon>
        <path d="M9.8828,12.1393 C9.5508,12.1393 9.2828,11.8703 9.2828,11.5393 L9.2828,11.2003 C9.2828,10.4173 9.7468,9.7093 10.4638,9.3963 C10.9928,9.1643 11.3358,8.6413 11.3358,8.0633 C11.3358,7.2623 10.6838,6.6113 9.8828,6.6113 C9.3408,6.6113 8.8478,6.9093 8.5958,7.3893 C8.4418,7.6833 8.0788,7.7953 7.7858,7.6413 C7.4918,7.4883 7.3798,7.1253 7.5328,6.8313 C7.9928,5.9553 8.8938,5.4103 9.8828,5.4103 C11.3458,5.4103 12.5358,6.6003 12.5358,8.0633 C12.5358,9.1183 11.9108,10.0733 10.9448,10.4953 C10.6638,10.6183 10.4828,10.8943 10.4828,11.2003 L10.4828,11.5393 C10.4828,11.8703 10.2148,12.1393 9.8828,12.1393 L9.8828,12.1393 Z M10.567,13.905 C10.567,14.283 10.261,14.589 9.883,14.589 C9.505,14.589 9.198,14.283 9.198,13.905 C9.198,13.527 9.505,13.221 9.883,13.221 C10.261,13.221 10.567,13.527 10.567,13.905 M10,2 C5.582,2 2,5.582 2,10 C2,14.418 5.582,18 10,18 C14.418,18 18,14.418 18,10 C18,5.582 14.418,2 10,2 M10,3.2 C13.75,3.2 16.8,6.25 16.8,10 C16.8,13.75 13.75,16.8 10,16.8 C6.25,16.8 3.2,13.75 3.2,10 C3.2,6.25 6.25,3.2 10,3.2" id="path-3"></path>
    </defs>
    <g id="Icon/Question" stroke="none" stroke-width="1" fill="none" fill-rule="evenodd">
        <mask id="mask-2" fill="white">
            <use xlink:href="#path-1"></use>
        </mask>
        <g id="icon-circle-question"></g>
        <mask id="mask-4" fill="white">
            <use xlink:href="#path-3"></use>
        </mask>
        <use id="icon-circle-question" fill="#A6A6A6" xlink:href="#path-3"></use>
        <rect id="Color" fill="#333333" mask="url(#mask-4)" x="0" y="0" width="20" height="20"></rect>
    </g>
</svg>