<?xml version="1.0" encoding="UTF-8"?>
<svg width="20px" height="20px" viewBox="0 0 20 20" version="1.1" xmlns="http://www.w3.org/2000/svg" xmlns:xlink="http://www.w3.org/1999/xlink">
    <title>Icon/Relation</title>
    <defs>
        <polygon id="path-1" points="0 20 20 20 20 0 0 0"></polygon>
        <path d="M16,4.8 C16.4418278,4.8 16.8,4.4418278 16.8,4 C16.8,3.5581722 16.4418278,3.2 16,3.2 C15.5581722,3.2 15.2,3.5581722 15.2,4 C15.2,4.4418278 15.5581722,4.8 16,4.8 Z M4,14 C5.1045695,14 6,14.8954305 6,16 C6,17.1045695 5.1045695,18 4,18 C2.8954305,18 2,17.1045695 2,16 C2,14.8954305 2.8954305,14 4,14 Z M4,15.2 C3.5581722,15.2 3.2,15.5581722 3.2,16 C3.2,16.4418278 3.5581722,16.8 4,16.8 C4.4418278,16.8 4.8,16.4418278 4.8,16 C4.8,15.5581722 4.4418278,15.2 4,15.2 Z M16,7.00000001 C16.3313708,7.00000001 16.6,7.26862916 16.6,7.6 L16.6,12.6666667 C16.6,14.8389867 14.8389867,16.6 12.6666667,16.6 L7.6,16.6 C7.26862916,16.6 7.00000001,16.3313708 7.00000001,16 C7.00000001,15.6686292 7.26862916,15.4 7.6,15.4 L12.6666667,15.4 C14.176245,15.4 15.4,14.176245 15.4,12.6666667 L15.4,7.6 C15.4,7.26862916 15.6686292,7.00000001 16,7.00000001 Z M12.4,3.4 C12.7313708,3.4 13,3.66862915 13,4 C13,4.33137085 12.7313708,4.6 12.4,4.6 L7.33333333,4.6 C5.82375502,4.6 4.6,5.82375502 4.6,7.33333333 L4.6,12.4 C4.6,12.7313708 4.33137085,13 4,13 C3.66862915,13 3.4,12.7313708 3.4,12.4 L3.4,7.33333333 C3.4,5.16101332 5.16101332,3.4 7.33333333,3.4 L12.4,3.4 Z M16,2 C17.1045695,2 18,2.8954305 18,4 C18,5.1045695 17.1045695,6 16,6 C14.8954305,6 14,5.1045695 14,4 C14,2.8954305 14.8954305,2 16,2 Z" id="path-3"></path>
    </defs>
    <g id="Icon/Relation" stroke="none" stroke-width="1" fill="none" fill-rule="evenodd">
        <mask id="mask-2" fill="white">
            <use xlink:href="#path-1"></use>
        </mask>
        <g id="icon-relation"></g>
        <mask id="mask-4" fill="white">
            <use xlink:href="#path-3"></use>
        </mask>
        <use id="relation" fill="#979797" fill-rule="nonzero" xlink:href="#path-3"></use>
        <rect id="Color" fill="#333333" mask="url(#mask-4)" x="0" y="0" width="20" height="20"></rect>
    </g>
</svg>