<?xml version="1.0" encoding="UTF-8"?>
<svg width="16px" height="16px" viewBox="0 0 16 16" version="1.1" xmlns="http://www.w3.org/2000/svg" xmlns:xlink="http://www.w3.org/1999/xlink">
    <title>Icon/Remove</title>
    <defs>
        <path d="M10.7814,9.9326 C11.0154,10.1666 11.0154,10.5466 10.7814,10.7816 C10.6644,10.8986 10.5104,10.9566 10.3574,10.9566 C10.2034,10.9566 10.0504,10.8986 9.9324,10.7816 L8.0004,8.8486 L6.0674,10.7816 C5.9504,10.8986 5.7964,10.9566 5.6434,10.9566 C5.4894,10.9566 5.3364,10.8986 5.2194,10.7816 C4.9844,10.5466 4.9844,10.1666 5.2194,9.9326 L7.1514,7.9996 L5.2194,6.0676 C4.9844,5.8326 4.9844,5.4536 5.2194,5.2186 C5.4534,4.9846 5.8334,4.9846 6.0674,5.2186 L8.0004,7.1516 L9.9324,5.2186 C10.1674,4.9846 10.5474,4.9846 10.7814,5.2186 C11.0154,5.4536 11.0154,5.8326 10.7814,6.0676 L8.8484,7.9996 L10.7814,9.9326 L10.7814,9.9326 Z M8.0004,-0.000400000001 C3.5814,-0.000400000001 0.000399999997,3.5816 0.000399999997,7.9996 C0.000399999997,12.4186 3.5814,15.9996 8.0004,15.9996 C12.4184,15.9996 16.0004,12.4186 16.0004,7.9996 C16.0004,3.5816 12.4184,-0.000400000001 8.0004,-0.000400000001 L8.0004,-0.000400000001 Z" id="path-1"></path>
    </defs>
    <g id="Icon/Remove" stroke="none" stroke-width="1" fill="none" fill-rule="evenodd">
        <mask id="mask-2" fill="white">
            <use xlink:href="#path-1"></use>
        </mask>
        <use id="icon-circle-remove" fill="#A6A6A6" xlink:href="#path-1"></use>
        <rect id="Color" fill="#333333" mask="url(#mask-2)" x="-2" y="-2" width="20" height="20"></rect>
    </g>
</svg>