<?xml version="1.0" encoding="UTF-8"?>
<svg width="20px" height="20px" viewBox="0 0 20 20" version="1.1" xmlns="http://www.w3.org/2000/svg" xmlns:xlink="http://www.w3.org/1999/xlink">
    <title>Icon/Search</title>
    <defs>
        <polygon id="path-1" points="0 20 20 20 20 0 0 0"></polygon>
        <path d="M15.8234,16.5518 L12.7934,13.5228 C12.6974,13.4258 12.6444,13.2958 12.6444,13.1578 C12.6444,13.0198 12.6974,12.8898 12.7934,12.7938 C12.8934,12.6938 13.0254,12.6438 13.1574,12.6438 C13.2894,12.6438 13.4214,12.6938 13.5214,12.7938 L16.5514,15.8228 L15.8234,16.5518 L15.8234,16.5518 Z M4.5034,10.7958 C2.7684,9.0608 2.7684,6.2388 4.5034,4.5038 C5.3704,3.6358 6.5104,3.2018 7.6494,3.2018 C8.7884,3.2018 9.9284,3.6358 10.7954,4.5038 C12.5304,6.2388 12.5304,9.0608 10.7954,10.7958 C9.0604,12.5298 6.2384,12.5308 4.5034,10.7958 L4.5034,10.7958 Z M17.8244,15.3998 L14.3704,11.9458 C13.8514,11.4268 13.0814,11.3158 12.4504,11.6018 L12.0274,11.1788 C12.8364,10.1778 13.2984,8.9548 13.2984,7.6498 C13.2984,6.1408 12.7114,4.7218 11.6444,3.6548 C9.4404,1.4508 5.8574,1.4518 3.6544,3.6548 C2.5874,4.7218 2.0004,6.1408 2.0004,7.6498 C2.0004,9.1578 2.5874,10.5768 3.6544,11.6438 C4.7564,12.7448 6.2024,13.2958 7.6494,13.2958 C8.9054,13.2958 10.1464,12.8548 11.1764,12.0258 L11.6004,12.4498 C11.5004,12.6698 11.4444,12.9088 11.4444,13.1578 C11.4444,13.6168 11.6224,14.0478 11.9454,14.3698 L15.3994,17.8238 C15.5114,17.9378 15.6644,17.9998 15.8234,17.9998 C15.9824,17.9998 16.1354,17.9378 16.2474,17.8238 L17.8244,16.2468 C18.0584,16.0128 18.0584,15.6328 17.8244,15.3998 L17.8244,15.3998 Z" id="path-3"></path>
    </defs>
    <g id="Icon/Search" stroke="none" stroke-width="1" fill="none" fill-rule="evenodd">
        <mask id="mask-2" fill="white">
            <use xlink:href="#path-1"></use>
        </mask>
        <g id="icon-search"></g>
        <mask id="mask-4" fill="white">
            <use xlink:href="#path-3"></use>
        </mask>
        <use id="icon-search" fill="#A6A6A6" xlink:href="#path-3"></use>
        <rect id="Color" fill="#333333" mask="url(#mask-4)" x="0" y="0" width="20" height="20"></rect>
    </g>
</svg>