<?xml version="1.0" encoding="UTF-8"?>
<svg width="20px" height="20px" viewBox="0 0 20 20" version="1.1" xmlns="http://www.w3.org/2000/svg" xmlns:xlink="http://www.w3.org/1999/xlink">
    <title>Icon/Share</title>
    <defs>
        <polygon id="path-1" points="0 20 20 20 20 0 0 0"></polygon>
        <path d="M12.2448,5.1816 L12.2448,7.0666 C12.2448,7.3976 11.9758,7.6666 11.6448,7.6666 C6.6188,7.6666 4.5378,11.5376 3.7098,14.1156 C7.1498,11.0296 11.4988,11.4746 11.7118,11.4996 C12.0158,11.5336 12.2448,11.7906 12.2448,12.0956 L12.2448,13.9796 L16.5598,9.5806 L12.2448,5.1816 L12.2448,5.1816 Z M2.5998,16.8856 C2.5298,16.8856 2.4588,16.8736 2.3898,16.8476 C2.1318,16.7506 1.9728,16.4926 2.0038,16.2176 C2.0148,16.1226 3.1558,6.9286 11.0448,6.4826 L11.0448,3.7136 C11.0448,3.4696 11.1918,3.2496 11.4178,3.1576 C11.6428,3.0666 11.9018,3.1186 12.0728,3.2936 L17.8278,9.1606 C18.0568,9.3936 18.0568,9.7676 17.8278,10.0006 L12.0728,15.8686 C11.9028,16.0416 11.6428,16.0936 11.4178,16.0036 C11.1918,15.9106 11.0448,15.6926 11.0448,15.4486 L11.0448,12.6636 C9.6048,12.6376 5.6368,12.9386 3.0948,16.6266 C2.9798,16.7926 2.7928,16.8856 2.5998,16.8856 L2.5998,16.8856 Z" id="path-3"></path>
    </defs>
    <g id="Icon/Share" stroke="none" stroke-width="1" fill="none" fill-rule="evenodd">
        <mask id="mask-2" fill="white">
            <use xlink:href="#path-1"></use>
        </mask>
        <g id="icon-share"></g>
        <mask id="mask-4" fill="white">
            <use xlink:href="#path-3"></use>
        </mask>
        <use id="icon-share" fill="#A6A6A6" xlink:href="#path-3"></use>
        <rect id="Color" fill="#333333" mask="url(#mask-4)" x="0" y="0" width="20" height="20"></rect>
    </g>
</svg>