<?xml version="1.0" encoding="UTF-8"?>
<svg width="20px" height="20px" viewBox="0 0 20 20" version="1.1" xmlns="http://www.w3.org/2000/svg" xmlns:xlink="http://www.w3.org/1999/xlink">
    <title>Icon/Star/Stroke</title>
    <defs>
        <polygon id="path-1" points="0 20 20 20 20 0 0 0"></polygon>
        <path d="M3.8898,8.7573 L6.7188,11.5153 C6.8598,11.6533 6.9248,11.8523 6.8908,12.0473 L6.2228,15.9413 L9.7208,14.1023 C9.8958,14.0103 10.1048,14.0103 10.2798,14.1023 L13.7768,15.9413 L13.1088,12.0473 C13.0758,11.8523 13.1398,11.6533 13.2808,11.5153 L16.1108,8.7573 L12.2008,8.1893 C12.0048,8.1613 11.8358,8.0383 11.7488,7.8613 L9.9998,4.3183 L8.2518,7.8613 C8.1638,8.0383 7.9948,8.1613 7.7998,8.1893 L3.8898,8.7573 L3.8898,8.7573 Z M5.4268,17.6373 C5.3018,17.6373 5.1788,17.5993 5.0738,17.5233 C4.8888,17.3893 4.7968,17.1623 4.8348,16.9363 L5.6558,12.1543 L2.1818,8.7683 C2.0178,8.6083 1.9588,8.3703 2.0298,8.1533 C2.0998,7.9353 2.2878,7.7773 2.5138,7.7443 L7.3148,7.0473 L9.4618,2.6963 C9.6638,2.2873 10.3358,2.2873 10.5378,2.6963 L12.6848,7.0473 L17.4868,7.7443 C17.7128,7.7773 17.8998,7.9353 17.9708,8.1533 C18.0408,8.3703 17.9828,8.6083 17.8188,8.7683 L14.3448,12.1543 L15.1648,16.9363 C15.2028,17.1623 15.1108,17.3893 14.9258,17.5233 C14.7418,17.6593 14.4968,17.6753 14.2938,17.5693 L9.9998,15.3113 L5.7058,17.5693 C5.6178,17.6153 5.5218,17.6373 5.4268,17.6373 L5.4268,17.6373 Z" id="path-3"></path>
    </defs>
    <g id="Icon/Star/Stroke" stroke="none" stroke-width="1" fill="none" fill-rule="evenodd">
        <mask id="mask-2" fill="white">
            <use xlink:href="#path-1"></use>
        </mask>
        <g id="icon-star-stroke"></g>
        <mask id="mask-4" fill="white">
            <use xlink:href="#path-3"></use>
        </mask>
        <use id="icon-star-stroke" fill="#A6A6A6" xlink:href="#path-3"></use>
        <rect id="Color" fill="#333333" mask="url(#mask-4)" x="0" y="0" width="20" height="20"></rect>
    </g>
</svg>