<?xml version="1.0" encoding="UTF-8"?>
<svg width="20px" height="20px" viewBox="0 0 20 20" version="1.1" xmlns="http://www.w3.org/2000/svg" xmlns:xlink="http://www.w3.org/1999/xlink">
    <title>Icon/Task</title>
    <defs>
        <path d="M5.00793711,12.9166768 C6.11250661,12.9166768 7.00793711,13.8121073 7.00793711,14.9166768 C7.00793711,16.0212463 6.11250661,16.9166768 5.00793711,16.9166768 C3.90336761,16.9166768 3.00793711,16.0212463 3.00793711,14.9166768 C3.00793711,13.8121073 3.90336761,12.9166768 5.00793711,12.9166768 Z M5.00793711,14.1166768 C4.56610931,14.1166768 4.20793711,14.474849 4.20793711,14.9166768 C4.20793711,15.3585046 4.56610931,15.7166768 5.00793711,15.7166768 C5.44976491,15.7166768 5.80793711,15.3585046 5.80793711,14.9166768 C5.80793711,14.474849 5.44976491,14.1166768 5.00793711,14.1166768 Z M15.9433529,14.2940935 C16.2340622,14.2940935 16.4700003,14.5740935 16.4700003,14.9190935 C16.4700003,15.2640935 16.2340622,15.5440935 15.9433529,15.5440935 L9.05761397,15.5440935 C8.76690461,15.5440935 8.53096659,15.2640935 8.53096659,14.9190935 C8.53096659,14.5740935 8.76690461,14.2940935 9.05761397,14.2940935 L15.9433529,14.2940935 Z M5.00793711,7.91667684 C6.11250661,7.91667684 7.00793711,8.81210734 7.00793711,9.91667684 C7.00793711,11.0212463 6.11250661,11.9166768 5.00793711,11.9166768 C3.90336761,11.9166768 3.00793711,11.0212463 3.00793711,9.91667684 C3.00793711,8.81210734 3.90336761,7.91667684 5.00793711,7.91667684 Z M5.00793711,9.11667684 C4.56610931,9.11667684 4.20793711,9.47484904 4.20793711,9.91667684 C4.20793711,10.3585046 4.56610931,10.7166768 5.00793711,10.7166768 C5.44976491,10.7166768 5.80793711,10.3585046 5.80793711,9.91667684 C5.80793711,9.47484904 5.44976491,9.11667684 5.00793711,9.11667684 Z M15.9433529,9.28967684 C16.2340622,9.28967684 16.4700003,9.56967684 16.4700003,9.91467684 C16.4700003,10.2596768 16.2340622,10.5396768 15.9433529,10.5396768 L9.05761397,10.5396768 C8.76690461,10.5396768 8.53096659,10.2596768 8.53096659,9.91467684 C8.53096659,9.56967684 8.76690461,9.28967684 9.05761397,9.28967684 L15.9433529,9.28967684 Z M7.33566461,3.19049937 C7.58844406,3.45027852 7.58844406,3.87570683 7.33564759,4.13550347 L5.22122927,6.30825056 C5.10071706,6.43294815 4.93994232,6.5 4.77471143,6.5 C4.60948055,6.5 4.4487058,6.43294815 4.32938472,6.30947874 L3.18958459,5.13833387 C2.93680514,4.87855471 2.93680514,4.45290901 3.18958459,4.19312986 C3.43673978,3.9391307 3.83335753,3.9391307 4.08051272,4.19312986 L4.77472903,4.90656967 L6.44473648,3.19049937 C6.69189167,2.93650021 7.08850941,2.93650021 7.33566461,3.19049937 Z M15.9433529,4.28884351 C16.2340622,4.28884351 16.4700003,4.56884351 16.4700003,4.91384351 C16.4700003,5.25884351 16.2340622,5.53884351 15.9433529,5.53884351 L9.05761397,5.53884351 C8.76690461,5.53884351 8.53096659,5.25884351 8.53096659,4.91384351 C8.53096659,4.56884351 8.76690461,4.28884351 9.05761397,4.28884351 L15.9433529,4.28884351 Z" id="path-1"></path>
    </defs>
    <g id="Icon/Task" stroke="none" stroke-width="1" fill="none" fill-rule="evenodd">
        <polygon id="box" points="0 20 20 20 20 0 0 0"></polygon>
        <mask id="mask-2" fill="white">
            <use xlink:href="#path-1"></use>
        </mask>
        <use id="to-do" fill="#A6A6A6" xlink:href="#path-1"></use>
        <rect id="Color" fill="#333333" mask="url(#mask-2)" x="0" y="0" width="20" height="20"></rect>
    </g>
</svg>