<?xml version="1.0" encoding="UTF-8"?>
<svg width="20px" height="20px" viewBox="0 0 20 20" version="1.1" xmlns="http://www.w3.org/2000/svg" xmlns:xlink="http://www.w3.org/1999/xlink">
    <title>Icon/Text</title>
    <defs>
        <polygon id="path-1" points="0 20 20 20 20 0 0 0"></polygon>
        <path d="M16.7999878,14.7999878 L16.7999878,5.20001221 L3.20001221,5.20001221 L3.20001221,14.7999878 L16.7999878,14.7999878 Z M17,4 C17.5491539,4 18,4.45832462 18,5 L18,15 C18,15.5416754 17.5491539,16 17,16 L3,16 C2.45084613,16 2,15.5416754 2,15 L2,5 C2,4.45832462 2.45084613,4 3,4 L17,4 Z M12.361461,8.75 C11.6872077,8.75 11.4285714,8.92857143 11.111461,9.28571429 C10.7943506,9.64285714 10.8214242,10.0714329 10.8214242,10.0714329 L10.8214242,10.0714329 L11.8214308,10.1428659 C11.8214308,10.1428659 11.7857143,9.64285714 12.5,9.64285714 C13.2142857,9.64285714 13.0043138,10.1071385 13.0043138,10.1071385 C12.5233937,10.1071385 11.9642857,10 11.2900324,10.4285758 C10.6157791,10.8571516 10.5376421,11.941434 11.111461,12.285723 C12.1828896,12.9285758 13.0400302,12.2142901 13.0400302,12.2142901 L13.0400302,12.2142901 L13.0400302,12.4285671 L14.0357099,12.4285671 L14.0357099,12.4285671 L14.0357099,10.2500044 C14.0357099,8.89286586 13.0357143,8.75 12.361461,8.75 Z M8.42857361,7.64286586 L7.38214765,7.64286586 L5.53571429,12.5 L6.64285932,12.5 L7.07142421,11.3571385 L8.78571647,11.3571385 L9.17857579,12.5 L10.2857099,12.5 L8.42857361,7.64286586 Z M13.0357143,10.9285627 C13.0357143,10.9285627 13.0357143,11.3064134 12.7857099,11.4902184 C12.3695341,11.7961937 11.9796321,11.6771977 11.8627682,11.5603338 C11.7459043,11.4434699 11.7857143,11.2142944 11.9642857,11.0714286 C12.1428571,10.9285627 13.0357143,10.9285627 13.0357143,10.9285627 Z M7.91071211,9.00000436 L8.42857361,10.4642814 L7.35714504,10.4642814 L7.91071211,9.00000436 Z" id="path-3"></path>
    </defs>
    <g id="Icon/Text" stroke="none" stroke-width="1" fill="none" fill-rule="evenodd">
        <mask id="mask-2" fill="white">
            <use xlink:href="#path-1"></use>
        </mask>
        <g id="icon-custom-text"></g>
        <mask id="mask-4" fill="white">
            <use xlink:href="#path-3"></use>
        </mask>
        <use id="icon-custom-text" fill="#A6A6A6" fill-rule="nonzero" xlink:href="#path-3"></use>
        <rect id="Color" fill="#333333" mask="url(#mask-4)" x="0" y="0" width="20" height="20"></rect>
    </g>
</svg>