<?xml version="1.0" encoding="UTF-8"?>
<svg width="20px" height="20px" viewBox="0 0 20 20" version="1.1" xmlns="http://www.w3.org/2000/svg" xmlns:xlink="http://www.w3.org/1999/xlink">
    <title>Icon/Tick</title>
    <defs>
        <polygon id="path-1" points="0 20 20 20 20 0 0 0"></polygon>
        <path d="M7.6542,14.5906 L3.1642,10.1006 C2.9302,9.8666 2.9302,9.4866 3.1642,9.2526 C3.3992,9.0186 3.7792,9.0186 4.0132,9.2526 L8.0782,13.3186 L15.9872,5.4096 C16.2222,5.1746 16.6012,5.1746 16.8362,5.4096 C17.0702,5.6436 17.0702,6.0236 16.8362,6.2576 L8.5022,14.5906 C8.3902,14.7046 8.2372,14.7666 8.0782,14.7666 C7.9192,14.7666 7.7662,14.7046 7.6542,14.5906 Z" id="path-3"></path>
    </defs>
    <g id="Icon/Tick" stroke="none" stroke-width="1" fill="none" fill-rule="evenodd">
        <mask id="mask-2" fill="white">
            <use xlink:href="#path-1"></use>
        </mask>
        <g id="icon-tick"></g>
        <mask id="mask-4" fill="white">
            <use xlink:href="#path-3"></use>
        </mask>
        <use id="icon-tick" fill="#A6A6A6" xlink:href="#path-3"></use>
        <rect id="Color" fill="#333333" mask="url(#mask-4)" x="0" y="0" width="20" height="20"></rect>
    </g>
</svg>