<?xml version="1.0" encoding="UTF-8"?>
<svg width="20px" height="20px" viewBox="0 0 20 20" version="1.1" xmlns="http://www.w3.org/2000/svg" xmlns:xlink="http://www.w3.org/1999/xlink">
    <title>Icon/Trash</title>
    <defs>
        <polygon id="path-1" points="0 20 20 20 20 0 0 0"></polygon>
        <path d="M13.1193,16.3984 L12.1343,16.3984 L12.8603,6.3284 L14.8863,6.3284 L13.1193,16.3984 L13.1193,16.3984 Z M9.0693,16.3984 L8.3433,6.3284 L11.6573,6.3284 L10.9313,16.3984 L9.0693,16.3984 L9.0693,16.3984 Z M5.1143,6.3284 L7.1393,6.3284 L7.8663,16.3984 L6.8813,16.3984 L5.1143,6.3284 L5.1143,6.3284 Z M9.0583,3.6024 L10.9423,3.6024 C11.3613,3.6024 11.7023,3.9424 11.7023,4.3614 L11.7023,5.1274 L8.2983,5.1274 L8.2983,4.3614 C8.2983,3.9424 8.6393,3.6024 9.0583,3.6024 L9.0583,3.6024 Z M17.4003,5.1274 L12.9023,5.1274 L12.9023,4.3614 C12.9023,3.2814 12.0223,2.4014 10.9423,2.4014 L9.0583,2.4014 C7.9773,2.4014 7.0983,3.2814 7.0983,4.3614 L7.0983,5.1274 L2.6003,5.1274 C2.2683,5.1274 2.0003,5.3964 2.0003,5.7284 C2.0003,6.0594 2.2683,6.3284 2.6003,6.3284 L3.8963,6.3284 L5.7863,17.1014 C5.8363,17.3884 6.0853,17.5974 6.3773,17.5974 L8.5113,17.5974 L11.4893,17.5974 L13.6233,17.5974 C13.9143,17.5974 14.1633,17.3884 14.2143,17.1014 L16.1043,6.3284 L17.4003,6.3284 C17.7313,6.3284 18.0003,6.0594 18.0003,5.7284 C18.0003,5.3964 17.7313,5.1274 17.4003,5.1274 L17.4003,5.1274 Z" id="path-3"></path>
    </defs>
    <g id="Icon/Trash" stroke="none" stroke-width="1" fill="none" fill-rule="evenodd">
        <mask id="mask-2" fill="white">
            <use xlink:href="#path-1"></use>
        </mask>
        <g id="icon-trash"></g>
        <mask id="mask-4" fill="white">
            <use xlink:href="#path-3"></use>
        </mask>
        <use id="icon-trash" fill="#A6A6A6" xlink:href="#path-3"></use>
        <rect id="Color" fill="#333333" mask="url(#mask-4)" x="0" y="0" width="20" height="20"></rect>
    </g>
</svg>