<?xml version="1.0" encoding="UTF-8"?>
<svg width="20px" height="20px" viewBox="0 0 20 20" version="1.1" xmlns="http://www.w3.org/2000/svg" xmlns:xlink="http://www.w3.org/1999/xlink">
    <title>Icon/Uploadfile</title>
    <defs>
        <polygon id="path-1" points="0 20 20 20 20 0 0 0"></polygon>
        <path d="M14.8,16.8 L5.2,16.8 C4.983,16.8 4.8,16.617 4.8,16.4 L4.8,3.6 C4.8,3.383 4.983,3.2 5.2,3.2 L9.601,3.2 L9.601,7.083 C9.601,8 10.351,8.75 11.268,8.75 L15.2,8.75 L15.2,16.4 C15.2,16.617 15.017,16.8 14.8,16.8 L14.8,16.8 Z M10.801,3.874 L14.477,7.55 L11.268,7.55 C11.015,7.55 10.801,7.336 10.801,7.083 L10.801,3.874 L10.801,3.874 Z M15.931,7.307 L11.093,2.469 C10.793,2.169 10.386,2 9.961,2 L5.2,2 C4.32,2 3.6,2.72 3.6,3.6 L3.6,16.4 C3.6,17.28 4.32,18 5.2,18 L14.8,18 C15.68,18 16.4,17.28 16.4,16.4 L16.4,8.439 C16.4,8.014 16.231,7.607 15.931,7.307 L15.931,7.307 Z M8.43375,12.6742 L9.39975,11.7072 L9.39975,15.2582 C9.39975,15.5902 9.66875,15.8592 9.99975,15.8592 C10.33175,15.8592 10.60075,15.5902 10.60075,15.2582 L10.60075,11.7072 L11.56675,12.6742 C11.80075,12.9082 12.18075,12.9082 12.41475,12.6742 C12.64975,12.4402 12.64975,12.0602 12.41475,11.8262 L10.42475,9.8352 C10.31175,9.7212 10.15975,9.6592 9.99975,9.6592 C9.84075,9.6592 9.68775,9.7212 9.57575,9.8352 L7.58475,11.8262 C7.35075,12.0602 7.35075,12.4402 7.58475,12.6742 C7.81875,12.9082 8.19875,12.9082 8.43375,12.6742" id="path-3"></path>
    </defs>
    <g id="Icon/Uploadfile" stroke="none" stroke-width="1" fill="none" fill-rule="evenodd">
        <mask id="mask-2" fill="white">
            <use xlink:href="#path-1"></use>
        </mask>
        <g id="icon-upload-file"></g>
        <mask id="mask-4" fill="white">
            <use xlink:href="#path-3"></use>
        </mask>
        <use id="icon-upload-file" fill="#A6A6A6" xlink:href="#path-3"></use>
        <rect id="Color" fill="#333333" mask="url(#mask-4)" x="0" y="0" width="20" height="20"></rect>
    </g>
</svg>