<?xml version="1.0" encoding="UTF-8"?>
<svg width="20px" height="20px" viewBox="0 0 20 20" version="1.1" xmlns="http://www.w3.org/2000/svg" xmlns:xlink="http://www.w3.org/1999/xlink">
    <title>Icon/Users</title>
    <defs>
        <polygon id="path-1" points="0 20 20 20 20 0 0 0"></polygon>
        <path d="M8.4385,4.106 C10.2125,4.106 11.6565,5.55 11.6565,7.324 L11.6565,8.57 C11.6565,9.52 11.2315,10.418 10.4895,11.032 C10.3095,11.182 10.2055,11.403 10.2055,11.637 L10.2055,12.062 C10.2055,12.107 10.2335,12.148 10.2765,12.163 L13.2485,13.223 C13.7145,13.389 14.0945,13.726 14.3165,14.17 C14.3385,14.217 14.3565,14.266 14.3665,14.316 L14.8635,16.735 C14.9305,17.061 14.7215,17.378 14.3965,17.444 C14.3565,17.452 14.3155,17.457 14.2755,17.457 C13.9965,17.457 13.7465,17.261 13.6885,16.978 L13.2095,14.646 C13.1255,14.511 12.9975,14.407 12.8455,14.353 L9.8745,13.294 C9.3555,13.109 9.0055,12.614 9.0055,12.062 L9.0055,11.637 C9.0055,11.044 9.2675,10.487 9.7245,10.108 C10.1895,9.723 10.4565,9.162 10.4565,8.57 L10.4565,7.324 C10.4565,6.211 9.5505,5.306 8.4385,5.306 C7.3255,5.306 6.4205,6.211 6.4205,7.324 L6.4205,8.57 C6.4205,9.165 6.6885,9.727 7.1565,10.113 C7.6105,10.487 7.8715,11.04 7.8715,11.628 L7.8715,12.061 C7.8715,12.613 7.5225,13.108 7.0035,13.294 L4.0305,14.353 C3.8785,14.407 3.7515,14.511 3.6665,14.646 L3.1885,16.978 C3.1215,17.302 2.8055,17.509 2.4795,17.444 C2.1545,17.378 1.9455,17.061 2.0125,16.735 L2.5095,14.316 C2.5205,14.266 2.5375,14.217 2.5605,14.17 C2.7815,13.725 3.1615,13.389 3.6285,13.223 L6.5995,12.164 C6.6425,12.148 6.6715,12.107 6.6715,12.061 L6.6715,11.628 C6.6715,11.399 6.5695,11.185 6.3925,11.039 C5.6475,10.423 5.2195,9.524 5.2195,8.57 L5.2195,7.324 C5.2195,5.55 6.6635,4.106 8.4385,4.106 Z M11.5625,2.5435 C13.3365,2.5435 14.7805,3.9875 14.7805,5.7625 L14.7805,7.0075 C14.7805,7.9585 14.3555,8.8565 13.6135,9.4705 C13.4335,9.6205 13.3295,9.8405 13.3295,10.0755 L13.3295,10.4995 C13.3295,10.5455 13.3575,10.5855 13.4005,10.6015 L16.3725,11.6615 C16.8395,11.8275 17.2185,12.1645 17.4405,12.6075 C17.4625,12.6545 17.4805,12.7035 17.4905,12.7545 L17.9875,15.1725 C18.0545,15.4985 17.8455,15.8155 17.5205,15.8815 C17.4805,15.8895 17.4395,15.8945 17.3995,15.8945 C17.1205,15.8945 16.8705,15.6985 16.8125,15.4155 L16.3335,13.0845 C16.2495,12.9485 16.1215,12.8455 15.9685,12.7905 L12.9985,11.7315 C12.4795,11.5475 12.1295,11.0525 12.1295,10.4995 L12.1295,10.0755 C12.1295,9.4825 12.3915,8.9255 12.8475,8.5465 C13.3135,8.1615 13.5805,7.6005 13.5805,7.0075 L13.5805,5.7625 C13.5805,4.6495 12.6745,3.7445 11.5625,3.7445 C11.3315,3.7445 11.1055,3.7835 10.8895,3.8595 C10.5755,3.9715 10.2335,3.8085 10.1225,3.4965 C10.0115,3.1845 10.1735,2.8405 10.4855,2.7295 C10.8315,2.6065 11.1935,2.5435 11.5625,2.5435 Z" id="path-3"></path>
    </defs>
    <g id="Icon/Users" stroke="none" stroke-width="1" fill="none" fill-rule="evenodd">
        <mask id="mask-2" fill="white">
            <use xlink:href="#path-1"></use>
        </mask>
        <g id="icon-users"></g>
        <mask id="mask-4" fill="white">
            <use xlink:href="#path-3"></use>
        </mask>
        <use id="icon-users" fill="#A6A6A6" xlink:href="#path-3"></use>
        <rect id="Color" fill="#333333" mask="url(#mask-4)" x="0" y="0" width="20" height="20"></rect>
    </g>
</svg>