<?xml version="1.0" encoding="UTF-8"?>
<svg width="20px" height="20px" viewBox="0 0 20 20" version="1.1" xmlns="http://www.w3.org/2000/svg" xmlns:xlink="http://www.w3.org/1999/xlink">
    <title>Icon/User</title>
    <defs>
        <polygon id="path-1" points="0 20 20 20 20 0 0 0"></polygon>
        <path d="M17.1105,18.001 C16.8315,18.001 16.5815,17.805 16.5235,17.522 L15.9355,14.66 C15.8175,14.46 15.6335,14.308 15.4125,14.229 L11.7935,12.938 C11.2125,12.73 10.8225,12.177 10.8225,11.561 L10.8225,11.043 C10.8225,10.36 11.1245,9.718 11.6505,9.282 C12.2465,8.787 12.5895,8.067 12.5895,7.307 L12.5895,5.789 C12.5895,4.361 11.4275,3.2 10.0005,3.2 C8.5725,3.2 7.4105,4.361 7.4105,5.789 L7.4105,7.307 C7.4105,8.07 7.7555,8.792 8.3555,9.286 C8.8795,9.718 9.1795,10.355 9.1795,11.032 L9.1795,11.56 C9.1795,12.176 8.7895,12.73 8.2085,12.937 L4.5885,14.229 C4.3665,14.308 4.1825,14.46 4.0645,14.661 L3.4765,17.522 C3.4105,17.846 3.0935,18.053 2.7685,17.988 C2.4435,17.922 2.2345,17.605 2.3005,17.279 L2.9065,14.333 C2.9175,14.282 2.9345,14.233 2.9575,14.187 C3.2115,13.676 3.6475,13.29 4.1845,13.098 L7.8045,11.807 C7.9095,11.77 7.9795,11.67 7.9795,11.56 L7.9795,11.032 C7.9795,10.714 7.8385,10.415 7.5925,10.212 C6.7145,9.489 6.2105,8.43 6.2105,7.307 L6.2105,5.789 C6.2105,3.7 7.9105,2 10.0005,2 C12.0895,2 13.7895,3.7 13.7895,5.789 L13.7895,7.307 C13.7895,8.425 13.2885,9.482 12.4165,10.206 C12.1665,10.413 12.0225,10.718 12.0225,11.043 L12.0225,11.561 C12.0225,11.671 12.0925,11.771 12.1965,11.808 L15.8155,13.098 C16.3535,13.29 16.7895,13.677 17.0425,14.187 C17.0665,14.233 17.0825,14.282 17.0935,14.333 L17.6985,17.279 C17.7655,17.605 17.5565,17.922 17.2315,17.988 C17.1915,17.996 17.1505,18.001 17.1105,18.001 L17.1105,18.001 Z" id="path-3"></path>
    </defs>
    <g id="Icon/User" stroke="none" stroke-width="1" fill="none" fill-rule="evenodd">
        <g id="icon-org-user">
            <mask id="mask-2" fill="white">
                <use xlink:href="#path-1"></use>
            </mask>
            <g></g>
            <mask id="mask-4" fill="white">
                <use xlink:href="#path-3"></use>
            </mask>
            <use fill="#A6A6A6" xlink:href="#path-3"></use>
            <rect id="Color" fill="#333333" mask="url(#mask-4)" x="0" y="0" width="20" height="20"></rect>
        </g>
    </g>
</svg>