<?xml version="1.0" encoding="UTF-8"?>
<svg width="20px" height="20px" viewBox="0 0 20 20" version="1.1" xmlns="http://www.w3.org/2000/svg" xmlns:xlink="http://www.w3.org/1999/xlink">
    <title>Icon/Wall</title>
    <defs>
        <polygon id="path-1" points="0 20 20 20 20 0 0 0"></polygon>
        <path d="M16.7999,14.7939 C16.7999,15.3489 16.3489,15.8009 15.7939,15.8009 C15.2379,15.8009 14.7869,15.3489 14.7869,14.7939 L14.7869,5.7999 L16.7999,5.7999 L16.7999,14.7939 L16.7999,14.7939 Z M3.1999,14.7999 L3.1999,4.1999 L13.5869,4.1999 L13.5869,14.7939 C13.5869,15.1589 13.6839,15.4979 13.8419,15.8009 L4.2059,15.8009 C3.6519,15.8009 3.1999,15.3519 3.1999,14.7999 L3.1999,14.7999 Z M14.1869,2.9999 C14.5189,2.9999 14.7869,3.2689 14.7869,3.5999 L14.7869,3.5999 L14.7869,4.5999 L17.3999,4.5999 C17.7319,4.5999 17.9999,4.8689 17.9999,5.1999 L17.9999,5.1999 L17.9999,14.7939 C17.9999,16.0109 17.0099,16.9999 15.7939,16.9999 L15.7939,16.9999 L4.2059,16.9999 C2.9899,16.9999 1.9999,16.0139 1.9999,14.7999 L1.9999,14.7999 L1.9999,3.5999 C1.9999,3.2689 2.2689,2.9999 2.5999,2.9999 L2.5999,2.9999 Z M9.87784258,12.3999939 L5.24212822,12.3999939 C4.89339607,12.3999939 4.60998535,12.6689939 4.60998535,12.9999939 C4.60998535,13.3319939 4.89339607,13.5999939 5.24212822,13.5999939 L9.87784258,13.5999939 C10.2276283,13.5999939 10.5099854,13.3319939 10.5099854,12.9999939 C10.5099854,12.6689939 10.2276283,12.3999939 9.87784258,12.3999939 Z M8.4106,9.20001221 L5.2106,9.20001221 C4.8786,9.20001221 4.6106,9.46801221 4.6106,9.80001221 C4.6106,10.1310122 4.8786,10.4000122 5.2106,10.4000122 L8.4106,10.4000122 C8.7426,10.4000122 9.0106,10.1310122 9.0106,9.80001221 C9.0106,9.46801221 8.7426,9.20001221 8.4106,9.20001221 Z M11.6105,6 L5.2105,6 C4.8795,6 4.6105,6.269 4.6105,6.6 C4.6105,6.932 4.8795,7.2 5.2105,7.2 L11.6105,7.2 C11.9425,7.2 12.2105,6.932 12.2105,6.6 C12.2105,6.269 11.9425,6 11.6105,6 Z" id="path-3"></path>
    </defs>
    <g id="Icon/Wall" stroke="none" stroke-width="1" fill="none" fill-rule="evenodd">
        <g id="icon-wall">
            <mask id="mask-2" fill="white">
                <use xlink:href="#path-1"></use>
            </mask>
            <g></g>
            <mask id="mask-4" fill="white">
                <use xlink:href="#path-3"></use>
            </mask>
            <use fill="#A6A6A6" xlink:href="#path-3"></use>
            <rect id="Color" fill="#333333" mask="url(#mask-4)" x="0" y="0" width="20" height="20"></rect>
        </g>
    </g>
</svg>