<?xml version="1.0" encoding="UTF-8"?>
<svg width="20px" height="20px" viewBox="0 0 20 20" version="1.1" xmlns="http://www.w3.org/2000/svg" xmlns:xlink="http://www.w3.org/1999/xlink">
    <title>Icon/Arrow/Right-o</title>
    <defs>
        <polygon id="path-1" points="0 20 20 20 20 0 0 0"></polygon>
        <path d="M10,16.8 C6.25,16.8 3.2,13.75 3.2,10 C3.2,6.25 6.25,3.2 10,3.2 C13.75,3.2 16.8,6.25 16.8,10 C16.8,13.75 13.75,16.8 10,16.8 L10,16.8 Z M10,2 C14.418,2 18,5.582 18,10 C18,14.418 14.418,18 10,18 C5.582,18 2,14.418 2,10 C2,5.582 5.582,2 10,2 Z M9.3938,6.2419 L6.0608,9.5759 C5.8268,9.8099 5.8268,10.1899 6.0608,10.4239 L9.3938,13.7569 C9.5118,13.8739 9.6648,13.9329 9.8188,13.9329 C9.9718,13.9329 10.1258,13.8739 10.2428,13.7569 C10.4768,13.5239 10.4768,13.1429 10.2428,12.9089 L7.9338,10.5999 L13.5148,10.5999 C13.8468,10.5999 14.1148,10.3319 14.1148,9.9999 C14.1148,9.6689 13.8468,9.3999 13.5148,9.3999 L7.9338,9.3999 L10.2428,7.0909 C10.4768,6.8569 10.4768,6.4769 10.2428,6.2419 C10.0088,6.0079 9.6288,6.0079 9.3938,6.2419 Z" id="path-3"></path>
    </defs>
    <g id="Icon/Arrow/Right-o" stroke="none" stroke-width="1" fill="none" fill-rule="evenodd">
        <mask id="mask-2" fill="white">
            <use xlink:href="#path-1"></use>
        </mask>
        <g id="icon-circle-arrow-right-o"></g>
        <mask id="mask-4" fill="white">
            <use xlink:href="#path-3"></use>
        </mask>
        <use id="icon-circle-arrow-right-o" fill="#A6A6A6" transform="translate(10.000000, 10.000000) scale(-1, 1) translate(-10.000000, -10.000000) " xlink:href="#path-3"></use>
        <rect id="Color" fill="#333333" mask="url(#mask-4)" x="0" y="0" width="20" height="20"></rect>
    </g>
</svg>