<?xml version="1.0" encoding="UTF-8"?>
<svg width="20px" height="20px" viewBox="0 0 20 20" version="1.1" xmlns="http://www.w3.org/2000/svg" xmlns:xlink="http://www.w3.org/1999/xlink">
    <title>Icon/Arrow/Right-o</title>
    <defs>
        <polygon id="path-1" points="0 20 20 20 20 0 0 0"></polygon>
        <path d="M10,16.8 C6.25,16.8 3.2,13.75 3.2,10 C3.2,6.25 6.25,3.2 10,3.2 C13.75,3.2 16.8,6.25 16.8,10 C16.8,13.75 13.75,16.8 10,16.8 L10,16.8 Z M10,2 C14.418,2 18,5.582 18,10 C18,14.418 14.418,18 10,18 C5.582,18 2,14.418 2,10 C2,5.582 5.582,2 10,2 Z M10.6063,6.2419 C10.3713,6.0079 9.9913,6.0079 9.7573,6.2419 C9.5233,6.4769 9.5233,6.8569 9.7573,7.0909 L9.7573,7.0909 L12.0663,9.3999 L6.4853,9.3999 C6.1533,9.3999 5.8853,9.6689 5.8853,9.9999 C5.8853,10.3319 6.1533,10.5999 6.4853,10.5999 L6.4853,10.5999 L12.0663,10.5999 L9.7573,12.9089 C9.5233,13.1429 9.5233,13.5239 9.7573,13.7569 C9.8743,13.8739 10.0283,13.9329 10.1813,13.9329 C10.3353,13.9329 10.4883,13.8739 10.6063,13.7569 L10.6063,13.7569 L13.9393,10.4239 C14.1733,10.1899 14.1733,9.8099 13.9393,9.5759 L13.9393,9.5759 Z" id="path-3"></path>
    </defs>
    <g id="Icon/Arrow/Right-o" stroke="none" stroke-width="1" fill="none" fill-rule="evenodd">
        <mask id="mask-2" fill="white">
            <use xlink:href="#path-1"></use>
        </mask>
        <g id="icon-circle-arrow-left-o"></g>
        <mask id="mask-4" fill="white">
            <use xlink:href="#path-3"></use>
        </mask>
        <use id="icon-circle-arrow-right-o" fill="#A6A6A6" xlink:href="#path-3"></use>
        <rect id="Color" fill="#333333" mask="url(#mask-4)" x="0" y="0" width="20" height="20"></rect>
    </g>
</svg>