<?xml version="1.0" encoding="UTF-8"?>
<svg width="20px" height="20px" viewBox="0 0 20 20" version="1.1" xmlns="http://www.w3.org/2000/svg" xmlns:xlink="http://www.w3.org/1999/xlink">
    <title>Icon/Arrow/Up</title>
    <defs>
        <rect id="path-1" x="0" y="0" width="20" height="20"></rect>
        <path d="M7.7203,15.4399 C7.5367,15.4399 7.3519,15.3691 7.2115,15.2287 C6.9295,14.9491 6.9295,14.4931 7.2115,14.2123 L11.7019,9.7195 L7.2115,5.2291 C6.9295,4.9483 6.9295,4.4923 7.2115,4.2115 C7.4923,3.9295 7.9483,3.9295 8.2291,4.2115 L13.2295,9.2107 C13.5103,9.4915 13.5103,9.9475 13.2295,10.2295 L8.2291,15.2287 C8.0887,15.3691 7.9039,15.4399 7.7203,15.4399 L7.7203,15.4399 Z" id="path-3"></path>
    </defs>
    <g id="Icon/Arrow/Up" stroke="none" stroke-width="1" fill="none" fill-rule="evenodd">
        <mask id="mask-2" fill="white">
            <use xlink:href="#path-1"></use>
        </mask>
        <g id="Mask"></g>
        <mask id="mask-4" fill="white">
            <use xlink:href="#path-3"></use>
        </mask>
        <use id="icon-arrow-up" fill="#CCCCCC" transform="translate(10.220050, 9.719950) rotate(-90.000000) translate(-10.220050, -9.719950) " xlink:href="#path-3"></use>
        <rect id="Color" fill="#333333" mask="url(#mask-4)" x="0" y="0" width="20" height="20"></rect>
    </g>
</svg>